<svg xmlns="http://www.w3.org/2000/svg" enable-background="new 0 0 600 500" viewBox="0 0 600 500"><path fill="#d2e4ff" d="M556 249c-6.9 18.9-4.4 84.8-2.1 130.8 1.3 25.2-18.8 46.3-44.1 46.3H97.3c-13.5 0-25.6-8.8-29.4-21.7 0-.1 0-.2-.1-.2-5.6-19.2-1.3-40 4.5-59.1 5.8-19.2 13.1-40.7 3.9-58.5-7.1-13.8-22.6-21.6-29.1-35.6-8.3-17.8-.8-161.8 57.4-182 30.5-10.6 62.4-10.2 91.4 3 29 13.2 205.8-17.3 261.5-12.1 16.7 1.6 32.9 6.7 48.8 12.1 6 2 12.2 4.4 16.2 9.4 7.3 9.3-4.9 51.7-8.5 63-3.7 11.3 34.1 59.2 36.5 66.6 1.4 4.3 7.1 33.8 5.6 38z" opacity=".3" class="colord2e4ff svgShape"/><path fill="#060405" d="M498.8 239.2H496v-1h2.8c.4 0 .8 0 1.1-.1l.1 1c-.3.1-.8.1-1.2.1zm-6.8 0h-4v-1h4v1zm-8 0h-4v-1h4v1zm-8 0h-4v-1h4v1zm-8 0h-4v-1h4v1zm-8 0h-4v-1h4v1zm-8 0h-4v-1h4v1zm-8 0h-4v-1h4v1zm-8 0h-4v-1h4v1zm-8 0h-4v-1h4v1zm-8 0h-4v-1h4v1zm-8 0h-4v-1h4v1zm-8 0h-4v-1h4v1zm100-1.4-.5-.9c1.1-.7 2-1.5 2.7-2.6l.8.6c-.7 1.1-1.8 2.1-3 2.9zm4.7-6.8-1-.2c.2-1.3.1-2 .1-3.9h1c0 1.9.1 2.8-.1 4.1zm.1-8h-1v-4h1v4zm0-8h-1v-4h1v4zm0-8h-1v-4h1v4zm0-8h-1v-4h1v4zm0-8h-1v-4h1v4zm0-8h-1v-4h1v4z" class="color060405 svgShape"/><path fill="#060405" d="M431.8 107.8v296.5c0 5.6-2.1 10.7-5.5 14.5-4 4.5-9.8 7.3-16.3 7.3H244.3c-12.1 0-21.9-9.8-21.9-21.9V107.8c0-12.1 9.8-21.9 21.9-21.9h165.6c12.1.1 21.9 9.8 21.9 21.9z" class="color060405 svgShape"/><path fill="#ffffff" d="M244.3 417.1c-7.1 0-12.8-5.8-12.8-12.8V107.8c0-7.1 5.8-12.8 12.8-12.8h165.6c7.1 0 12.8 5.8 12.8 12.8v296.5c0 7.1-5.8 12.8-12.8 12.8H244.3z" class="colorfff svgShape"/><path fill="#060405" d="m369.3 93-5.4 12.8c-.7 1.6-2.3 2.7-4.1 2.7h-65.6c-1.8 0-3.4-1.1-4.1-2.7L284.9 93h84.4z" class="color060405 svgShape"/><path fill="#ffffff" d="M348.6 101.6h-34.1c-1.2 0-2.2-1-2.2-2.2v-.8c0-1.2 1-2.2 2.2-2.2h34.1c1.2 0 2.2 1 2.2 2.2v.8c0 1.2-1 2.2-2.2 2.2z" class="colorfff svgShape"/><circle cx="305.6" cy="98.9" r="3.5" fill="#ffffff" class="colorfff svgShape"/><path fill="#060405" d="M354.8 187.4h-57.2v-24.9c0-15.8 12.8-28.6 28.6-28.6s28.6 12.8 28.6 28.6v24.9zM306 179h40.4v-16.5c0-11.2-9-20.2-20.2-20.2-11.1 0-20.2 9.1-20.2 20.2V179z" class="color060405 svgShape"/><path fill="#6193f6" d="M365.8 182.9v55.8c0 4.3-3.5 7.8-7.8 7.8h-63.5c-4.3 0-7.8-3.5-7.8-7.8v-55.8c0-4.3 3.5-7.8 7.8-7.8H358c4.3 0 7.8 3.5 7.8 7.8z" class="color6193f6 svgShape"/><path fill="#060405" d="M332.9 222.9c.4 1.5-.8 3-2.3 3h-8.7c-1.6 0-2.7-1.4-2.3-3l2.4-10.1c-3.1-1.6-5.1-5-4.8-8.8.4-4.2 3.8-7.7 8-8.2 5.5-.6 10.1 3.7 10.1 9 0 3.5-1.9 6.5-4.8 8l2.4 10.1z" class="color060405 svgShape"/><path fill="#d2e4ff" d="M387.6 299.2h-121c-2.7 0-4.9-2.2-4.9-4.9v-23.8c0-2.7 2.2-4.9 4.9-4.9h121c2.7 0 4.9 2.2 4.9 4.9v23.8c0 2.7-2.2 4.9-4.9 4.9zM387.6 345.1h-121c-2.7 0-4.9-2.2-4.9-4.9v-23.8c0-2.7 2.2-4.9 4.9-4.9h121c2.7 0 4.9 2.2 4.9 4.9v23.8c0 2.7-2.2 4.9-4.9 4.9z" class="colord2e4ff svgShape"/><path fill="#ff7545" d="M362.5 391h-70.9c-2.7 0-4.9-2.2-4.9-4.9v-23.8c0-2.7 2.2-4.9 4.9-4.9h70.9c2.7 0 4.9 2.2 4.9 4.9v23.8c.1 2.7-2.1 4.9-4.9 4.9z" class="colorff7545 svgShape"/><path fill="#ffffff" d="m290.8 330-4.2-1.7 4.3-1.7c.8-.5 1.1-1.4.6-2.4-.7-1.1-1.9-1-2.3-.6-.1 0-.2.1-3.6 2.9.7-4.3.7-4.5.7-4.5 0-.5-.2-.9-.5-1.2-.7-.6-1.7-.6-2.4 0-.3.3-.5.7-.5 1.2 0 .1 0 .2.7 4.5-3.4-2.8-3.5-2.8-3.6-2.9-.8-.4-1.7-.3-2.3.6-.4.7-.3 1.8.6 2.4l4.2 1.7-4.3 1.7c-1 .5-1 1.6-.6 2.3.6.9 1.6 1 2.3.7.1 0 .2-.1 3.6-2.9-.7 4.3-.7 4.5-.7 4.5 0 1 .8 1.7 1.7 1.7.9 0 1.7-.7 1.7-1.7 0-.1 0-.2-.7-4.5 3.4 2.8 3.5 2.8 3.6 2.9.7.3 1.7.2 2.3-.7.5-.8.3-1.8-.6-2.3zM312.1 330l-4.2-1.7 4.3-1.7c.8-.5 1.1-1.4.6-2.4-.7-1.1-1.9-1-2.3-.6-.1 0-.2.1-3.6 2.9.7-4.3.7-4.5.7-4.5 0-.5-.2-.9-.5-1.2-.7-.6-1.7-.6-2.4 0-.3.3-.5.7-.5 1.2 0 .1 0 .2.7 4.5-3.4-2.8-3.5-2.8-3.6-2.9-.8-.4-1.7-.3-2.3.6-.4.7-.3 1.8.6 2.4l4.2 1.7-4.3 1.7c-1 .5-1 1.6-.6 2.3.6.9 1.6 1 2.3.7.1 0 .2-.1 3.6-2.9-.7 4.3-.7 4.5-.7 4.5 0 1 .8 1.7 1.7 1.7.9 0 1.7-.7 1.7-1.7 0-.1 0-.2-.7-4.5 3.4 2.8 3.5 2.8 3.6 2.9.7.3 1.7.2 2.3-.7.5-.8.3-1.8-.6-2.3zM333.4 330l-4.2-1.7 4.3-1.7c.8-.5 1.1-1.4.6-2.4-.7-1.1-1.9-1-2.3-.6-.1 0-.2.1-3.6 2.9.7-4.3.7-4.5.7-4.5 0-.5-.2-.9-.5-1.2-.7-.6-1.7-.6-2.4 0-.3.3-.5.7-.5 1.2 0 .1 0 .2.7 4.5-3.4-2.8-3.5-2.8-3.6-2.9-.8-.4-1.7-.3-2.3.6-.4.7-.3 1.8.6 2.4l4.2 1.7-4.3 1.7c-1 .5-1 1.6-.6 2.3.6.9 1.6 1 2.3.7.1 0 .2-.1 3.6-2.9-.7 4.3-.7 4.5-.7 4.5 0 1 .8 1.7 1.7 1.7.9 0 1.7-.7 1.7-1.7 0-.1 0-.2-.7-4.5 3.4 2.8 3.5 2.8 3.6 2.9.7.3 1.7.2 2.3-.7.5-.8.3-1.8-.6-2.3zM354.7 330l-4.2-1.7 4.3-1.7c.8-.5 1.1-1.4.6-2.4-.7-1.1-1.9-1-2.3-.6-.1 0-.2.1-3.6 2.9.7-4.3.7-4.5.7-4.5 0-.5-.2-.9-.5-1.2-.7-.6-1.7-.6-2.4 0-.3.3-.5.7-.5 1.2 0 .1 0 .2.7 4.5-3.4-2.8-3.5-2.8-3.6-2.9-.3-.2-.5-.2-.8-.2-.6 0-1.1.3-1.5.9-.2.3-.2.6-.2.9 0 .7.3 1.1.9 1.5l4.2 1.7-4.5 1.6c-1 .5-1 1.6-.6 2.3.6.9 1.6 1 2.3.7.1 0 .2-.1 3.6-2.9-.7 4.3-.7 4.5-.7 4.5 0 1 .8 1.7 1.7 1.7.9 0 1.7-.7 1.7-1.7 0-.1 0-.2-.7-4.5 3.4 2.8 3.5 2.8 3.6 2.9.7.3 1.7.2 2.3-.7.6-.8.4-1.8-.5-2.3zM376 330l-4.2-1.7 4.3-1.7c.8-.5 1.1-1.4.6-2.4-.7-1.1-1.9-1-2.3-.6-.1 0-.2.1-3.6 2.9.7-4.3.7-4.5.7-4.5 0-.5-.2-.9-.5-1.2-.7-.6-1.7-.6-2.4 0-.3.3-.5.7-.5 1.2 0 .1 0 .2.7 4.5-3.4-2.8-3.5-2.8-3.6-2.9-.8-.4-1.7-.3-2.3.6-.4.7-.3 1.8.6 2.4l4.2 1.7-4.3 1.7c-1 .5-1 1.6-.6 2.3.6.9 1.6 1 2.3.7.1 0 .2-.1 3.6-2.9-.7 4.3-.7 4.5-.7 4.5 0 1 .8 1.7 1.7 1.7.9 0 1.7-.7 1.7-1.7 0-.1 0-.2-.7-4.5 3.4 2.8 3.5 2.8 3.6 2.9.7.3 1.7.2 2.3-.7.5-.8.3-1.8-.6-2.3zM290.8 284.1l-4.2-1.7 4.3-1.7c.8-.5 1.1-1.4.6-2.4-.7-1.1-1.9-1-2.3-.6-.1 0-.2.1-3.6 2.9.7-4.3.7-4.5.7-4.5 0-.5-.2-.9-.5-1.2-.7-.6-1.7-.6-2.4 0-.3.3-.5.7-.5 1.2 0 .1 0 .2.7 4.5-3.4-2.8-3.5-2.8-3.6-2.9-.8-.4-1.7-.3-2.3.6-.4.7-.3 1.8.6 2.4l4.2 1.7-4.3 1.7c-1 .5-1 1.6-.6 2.3.6.9 1.6 1 2.3.7.1 0 .2-.1 3.6-2.9-.7 4.3-.7 4.5-.7 4.5 0 1 .8 1.7 1.7 1.7.9 0 1.7-.7 1.7-1.7 0-.1 0-.2-.7-4.5 3.4 2.8 3.5 2.8 3.6 2.9.7.3 1.7.2 2.3-.7.5-.8.3-1.8-.6-2.3zM312.1 284.1l-4.2-1.7 4.3-1.7c.8-.5 1.1-1.4.6-2.4-.7-1.1-1.9-1-2.3-.6-.1 0-.2.1-3.6 2.9.7-4.3.7-4.5.7-4.5 0-1.4-1.8-2.3-2.9-1.2-.3.3-.5.7-.5 1.2 0 .1 0 .2.7 4.5-3.4-2.8-3.5-2.8-3.6-2.9-.8-.4-1.7-.3-2.3.6-.4.7-.3 1.8.6 2.4l4.2 1.7-4.3 1.7c-1 .5-1 1.6-.6 2.3.6.9 1.6 1 2.3.7.1 0 .2-.1 3.6-2.9-.7 4.3-.7 4.5-.7 4.5 0 1 .8 1.7 1.7 1.7.9 0 1.7-.7 1.7-1.7 0-.1 0-.2-.7-4.5 3.4 2.8 3.5 2.8 3.6 2.9.7.3 1.7.2 2.3-.7.5-.8.3-1.8-.6-2.3zM333.4 284.1l-4.2-1.7 4.3-1.7c.5-.3.8-.8.8-1.5 0-1.5-1.8-2.2-2.5-1.5-.1 0-.2.1-3.6 2.9.7-4.3.7-4.5.7-4.5 0-.5-.2-.9-.5-1.2-.7-.6-1.7-.6-2.4 0-.3.3-.5.7-.5 1.2 0 .1 0 .2.7 4.5-3.4-2.8-3.5-2.8-3.6-2.9-.8-.4-1.7-.3-2.3.6-.4.7-.3 1.8.6 2.4l4.2 1.7-4.3 1.7c-1 .5-1 1.6-.6 2.3.6.9 1.6 1 2.3.7.1 0 .2-.1 3.6-2.9-.7 4.3-.7 4.5-.7 4.5 0 1 .8 1.7 1.7 1.7.9 0 1.7-.7 1.7-1.7 0-.1 0-.2-.7-4.5 3.4 2.8 3.5 2.8 3.6 2.9.7.3 1.7.2 2.3-.7.5-.8.3-1.8-.6-2.3zM354.7 284.1l-4.2-1.7 4.3-1.7c.8-.5 1.1-1.4.6-2.4-.7-1.1-1.9-1-2.3-.6-.1 0-.2.1-3.6 2.9.7-4.3.7-4.5.7-4.5 0-.5-.2-.9-.5-1.2-.7-.6-1.7-.6-2.4 0-.3.3-.5.7-.5 1.2 0 .1 0 .2.7 4.5-3.4-2.8-3.5-2.8-3.6-2.9-.8-.4-1.7-.3-2.3.6-.4.7-.3 1.8.6 2.4l4.2 1.7-4.3 1.7c-1 .5-1 1.6-.6 2.3.6.9 1.6 1 2.3.7.1 0 .2-.1 3.6-2.9-.7 4.3-.7 4.5-.7 4.5 0 1 .8 1.7 1.7 1.7.9 0 1.7-.7 1.7-1.7 0-.1 0-.2-.7-4.5 3.4 2.8 3.5 2.8 3.6 2.9.7.3 1.7.2 2.3-.7.5-.8.3-1.8-.6-2.3zM376 284.1l-4.2-1.7 4.3-1.7c.8-.5 1.1-1.4.6-2.4-.7-1.1-1.9-1-2.3-.6-.1 0-.2.1-3.6 2.9.7-4.3.7-4.5.7-4.5 0-.5-.2-.9-.5-1.2-.7-.6-1.7-.6-2.4 0-.3.3-.5.7-.5 1.2 0 .1 0 .2.7 4.5-3.4-2.8-3.5-2.8-3.6-2.9-.8-.4-1.7-.3-2.3.6-.4.7-.3 1.8.6 2.4l4.2 1.7-4.3 1.7c-1 .5-1 1.6-.6 2.3.6.9 1.6 1 2.3.7.1 0 .2-.1 3.6-2.9-.7 4.3-.7 4.5-.7 4.5 0 1 .8 1.7 1.7 1.7.9 0 1.7-.7 1.7-1.7 0-.1 0-.2-.7-4.5 3.4 2.8 3.5 2.8 3.6 2.9.7.3 1.7.2 2.3-.7.5-.8.3-1.8-.6-2.3zM306.6 378.7h-4.7v-8.3c0-.3-.1-.5-.3-.7-.4-.4-1-.4-1.3 0-.2.2-.3.4-.3.7v9c0 .3.1.6.4.9s.5.4.9.4h5.4c.3 0 .5-.1.7-.3.2-.2.3-.4.3-.7 0-.3-.1-.5-.3-.7-.3-.2-.5-.3-.8-.3zM317.3 370.1c-.8-.5-1.8-.7-2.9-.7-1.1 0-2.1.2-2.9.7-.8.5-1.5 1.2-1.9 2-.4.8-.7 1.8-.7 2.9 0 1.1.3 2.1.7 2.9.5.9 1.1 1.5 1.9 2 .8.5 1.8.7 2.9.7s2.1-.2 2.9-.7c.8-.5 1.5-1.2 1.9-2 .5-.9.7-1.8.7-2.9 0-1.1-.3-2.1-.7-2.9-.4-.8-1.1-1.5-1.9-2zm-2.9 8.8c-.8 0-1.4-.2-2-.5-.5-.3-1-.8-1.3-1.4-.3-.6-.4-1.3-.4-2s.1-1.4.4-2c.3-.6.7-1 1.3-1.4.5-.3 1.2-.5 2-.5s1.4.2 2 .5c.5.3 1 .8 1.3 1.4.3.6.4 1.3.4 2s-.1 1.4-.4 2c-.3.6-.7 1-1.3 1.4-.6.3-1.2.5-2 .5zM330.7 374.3h-3c-.2 0-.4.1-.6.3-.2.2-.3.4-.3.6 0 .2.1.4.3.6.2.2.4.3.6.3h2.2v2.3c-.7.4-1.5.6-2.4.6-.8 0-1.5-.2-2.1-.5-.6-.3-1-.8-1.3-1.4-.3-.6-.5-1.2-.5-2s.2-1.5.5-2.1c.3-.6.8-1 1.3-1.3.6-.3 1.2-.5 1.9-.5.5 0 1 .1 1.5.2s.9.3 1.4.6c.4.2.8.1 1.1-.2.2-.2.2-.4.2-.6 0-.2 0-.3-.1-.5l-.3-.3c-.6-.4-1.1-.6-1.8-.8-.6-.2-1.3-.3-2.1-.3-1 0-2 .2-2.8.7-.8.5-1.5 1.2-2 2-.5.9-.7 1.9-.7 3s.2 2.1.7 2.9c.5.9 1.1 1.5 2 2 .8.5 1.8.7 2.9.7 1.2 0 2.4-.3 3.6-.9.2-.1.4-.3.5-.5.1-.2.2-.4.2-.7v-3.4c0-.3-.1-.5-.3-.7s-.3-.1-.6-.1zM339.6 369.7c-.2.2-.3.4-.3.7v9.3c0 .3.1.5.3.7.2.2.4.3.7.3.3 0 .5-.1.7-.3.2-.2.3-.4.3-.7v-9.3c0-.3-.1-.5-.3-.7-.4-.4-1-.3-1.4 0zM353.8 369.7c-.4-.4-1-.4-1.3 0-.2.2-.3.4-.3.7v7.3l-5.3-7.7c-.3-.4-.6-.6-1-.6h-.2c-.3 0-.6.1-.9.4-.2.2-.4.5-.4.9v9c0 .3.1.5.3.7.4.4 1 .4 1.3 0 .2-.2.3-.4.3-.7v-7.3l5.4 7.8c.1.2.3.3.4.4.2.1.4.1.6.1h.2c.3 0 .6-.1.9-.4.2-.2.4-.5.4-.9v-9c-.1-.3-.2-.5-.4-.7z" class="colorfff svgShape"/><path d="M431.8 308.8v95.5c0 5.6-2.1 10.7-5.5 14.5-26.6-23.7-37-59.7-42-79.7-1.2-4.9 2-9.7 6.9-10.6 18.4-3.2 31.6-11.5 40.6-19.7z" opacity=".05" fill="#000000" class="color000 svgShape"/><path fill="#6193f6" d="M505.3 341.4c-5.5 21.8-17.9 64.2-54.1 83.6-2.2 1.2-4.9 1.2-7.1 0-36.2-19.4-48.6-61.8-54.1-83.6-1.1-4.4 1.8-8.8 6.3-9.6 23.7-4.1 37.9-17.4 45.1-26.7 3.2-4.1 9.3-4.1 12.5 0 7.3 9.4 21.4 22.6 45.1 26.7 4.5.7 7.4 5.1 6.3 9.6z" class="color6193f6 svgShape"/><path fill="#ffffff" d="M447.6 412.2c-27.2-15.2-38.3-46.4-44.3-69.5 22-4.4 36-16.2 44.3-26.1 8.3 10 22.3 21.7 44.3 26.1-6 23.1-17.1 54.2-44.3 69.5z" class="colorfff svgShape"/><path fill="#060405" d="m438 376.9-6.6-6.6c-1.2-1.2-1.2-3 0-4.2 1.2-1.2 3-1.2 4.2 0l4.5 4.5 19.6-19.6c1.2-1.2 3-1.2 4.2 0 1.2 1.2 1.2 3 0 4.2l-21.7 21.7c-1.2 1.1-3.1 1.1-4.2 0z" class="color060405 svgShape"/><path fill="#6193f6" d="M151.9 424.2v-3.6h-21.5c-.3 7-.8 20.1-1 20.1h35c1.2-11.5-12.5-16.5-12.5-16.5z" class="color6193f6 svgShape"/><path fill="#060405" d="M163.9 435.7c.5 1.5.7 3.2.5 5h-35c.1 0 .2-2.1.3-5h34.2z" class="color060405 svgShape"/><path fill="#6193f6" d="M74.1 424.2v-3.6H52.6c-.3 7-.8 20.1-1 20.1h35c1.1-11.5-12.5-16.5-12.5-16.5z" class="color6193f6 svgShape"/><path fill="#060405" d="M86.1 435.7c.5 1.5.7 3.2.5 5h-35c.1 0 .2-2.1.3-5h34.2zM51.6 424.3c0 1.7 25.2 1.7 25.2 0L108 321.4 129.1 423c0 1.8 25.1 1.8 25.1 0l-10.3-149H74.1L51.6 424.3z" class="color060405 svgShape"/><path fill="#ffffff" d="M210.4 217.3s1.4 4.8.3 8.5c-1.1 3.7-10.1 3.2-10.1 3.2s-38 30.5-56.6 26.2c-11.3-2.6-21.2-33.6-21.2-33.6l29.4-10.9 7 15.9 40-11.1s-.1-9.3 2.8-7.7c2.7 1.6 1.3 5.1 1.3 5.3.3-.1 14.9-6.2 16.4-2.5 1.4 3.9-9.3 6.7-9.3 6.7z" class="colorfff svgShape"/><path fill="#060405" d="M147.9 256.2c-1.4 0-2.8-.1-4.1-.4-11.4-2.7-21.2-32.6-21.6-33.9-.1-.3.1-.5.3-.6l29.4-10.9c.2-.1.5 0 .6.3l6.8 15.5 39.2-10.8c0-1.7.2-6.8 1.9-7.8.3-.2.9-.3 1.6.1 2.2 1.2 2.1 3.6 1.8 4.9 5-2 14.7-5.2 16.1-1.8.3.7.3 1.4-.1 2.1-1.3 2.6-7.1 4.5-8.8 5 .3 1.3 1.1 5.2.2 8.3-1.1 3.7-9.1 3.6-10.5 3.5-2.7 2-33.8 26.5-52.8 26.5zM123.4 222c1.3 3.8 10.6 30.4 20.7 32.8 18.2 4.2 55.8-25.8 56.2-26.1.1-.1.2-.1.3-.1 2.4.1 8.8-.1 9.6-2.8 1-3.5-.3-8.2-.3-8.2v-.4c.1-.1.2-.2.3-.2 2-.5 7.6-2.4 8.7-4.6.2-.4.2-.8.1-1.3-.9-2.1-8.8-.1-15.7 2.7-.2.1-.4 0-.6-.1-.1-.1-.2-.3-.1-.5.1-.3 1.3-3.4-1-4.7-.3-.2-.5-.1-.6-.1-1 .6-1.5 4.7-1.4 7.4 0 .2-.1.4-.4.5l-40 11.1c-.2.1-.5-.1-.6-.3l-6.8-15.5-28.4 10.4z" class="color060405 svgShape"/><path fill="#b580d8" d="M129.4 175.5s19.8 3.5 24.9 19.2c1.4 4.3 6.2 27.2 6.2 27.2l-34.7 5.5 3.6-51.9z" class="colorb580d8 svgShape"/><path fill="#060405" d="M145.7 225.7c-.3 0-.5-.2-.5-.5 0-4.4-.3-8.9-.9-13.3 0-.3.2-.5.4-.6.3 0 .5.2.6.4.6 4.4.9 9 .9 13.4 0 .4-.2.6-.5.6z" class="color060405 svgShape"/><path fill="#b580d8" d="M71.2 177.9c4.8-8 58.1-9.4 67.3 3.2 9.5 13 7.4 99.8 7.4 99.8.7 8.8-77.3 9.2-78 .4 0 0-1.6-95.2 3.3-103.4z" class="colorb580d8 svgShape"/><path fill="#ffffff" d="M100.4 283.1H119c.5 0 1-.3 1.2-.8l13.7-28.1c.4-.9-.2-2-1.2-2h-18.6c-.5 0-1 .3-1.2.8l-13.7 28.1c-.4 1 .2 2 1.2 2z" class="colorfff svgShape"/><path fill="#060405" d="M119.1 283.6h-18.6c-.6 0-1.2-.3-1.6-.9-.3-.5-.4-1.2-.1-1.8l13.7-28.1c.3-.6 1-1 1.7-1h18.6c.6 0 1.2.3 1.6.9.3.5.4 1.2.1 1.8l-13.7 28.1c-.4.6-1 1-1.7 1zm-5-30.8c-.3 0-.6.2-.8.5l-13.7 28.1c-.1.3-.1.6 0 .8.2.3.4.4.7.4h18.6c.3 0 .6-.2.8-.5l13.7-28.1c.1-.3.1-.6 0-.8-.2-.3-.4-.4-.7-.4h-18.6z" class="color060405 svgShape"/><path fill="#ffffff" d="M44.2 234.3c0 16.9 50.8 34 50.8 34s11.5 16.8 21.1 8.7c9.6-8.2-8.7-12.6-8.7-12.6l2.5-5.1c-.1-3-7.7 1.1-7.7 1.1l-31.9-28.2 7.4-12.8L52.8 208c0-.1-8.5 19.7-8.6 26.3z" class="colorfff svgShape"/><path fill="#060405" d="M110.4 279.7c-.4 0-.8 0-1.3-.1-7.2-1-13.5-9.6-14.4-10.9-3.7-1.3-51-17.8-51-34.5 0-6.6 8.2-25.8 8.6-26.6l.3-.3h.4l24.9 11.4.3.3c.1.1 0 .3 0 .4L70.9 232l31.3 27.7c1.4-.7 5.7-2.8 7.4-1.8.3.2.7.6.7 1.3 0 .1 0 .2-.1.2L108 264c2.3.6 10.2 3.1 11.2 7.4.5 1.9-.5 3.9-2.8 5.9-1.8 1.6-3.8 2.4-6 2.4zm-57.3-71.1c-1.3 3-8.3 19.9-8.3 25.7 0 16.3 49.9 33.4 50.4 33.6.1 0 .2.1.3.2.1.1 6.7 9.7 13.8 10.6 2.4.3 4.6-.4 6.5-2 2-1.7 2.9-3.4 2.5-4.9-1-4.4-11-6.8-11.1-6.8-.1 0-.3-.1-.3-.3-.1-.1-.1-.3 0-.4l2.4-5c0-.2-.1-.3-.2-.4-1-.6-4.5.8-6.7 2-.2.1-.4.1-.6-.1L70 232.5c-.2-.2-.2-.4-.1-.6l7.1-12.4-23.9-10.9zm-8.8 25.7z" class="color060405 svgShape"/><path fill="#b580d8" d="M74.3 175.6c-.6.5-7.3 3-12.6 11.2-3.8 5.9-11.7 22.4-11.7 22.4-2.3 2.8 22.3 21.5 25.1 17.9 0 0 11.1-17.2 11.5-26.4.6-12-12.3-25.1-12.3-25.1z" class="colorb580d8 svgShape"/><path fill="#060405" d="M73.9 227.9h-.2c-5.1-.3-20.3-11-23.6-16.5-.1-.2-.1-.5.2-.7.2-.1.5-.1.7.2 3.1 5.2 18.1 15.7 22.8 16 .4 0 .7 0 .8-.2.1-.1 11-17.2 11.4-26.2 0-.3.2-.5.5-.5s.5.2.5.5c-.4 9.3-11.1 26-11.6 26.7-.4.5-.9.7-1.5.7z" class="color060405 svgShape"/><path fill="#ffffff" d="M113.9 163.5s2.4 4.8 5.2 9c2.1 3.2-1.8 9.3-5.4 11.1-5.8 3-17-10.6-17-10.6l-.5-30.1 17.7 20.6z" class="colorfff svgShape"/><path fill="#060405" d="M112 184.5c-6.3 0-15.7-11.8-16.2-12.4l-.1-.1v-30.4l18.6 21.7s2.5 4.8 5.2 9c2.3 3.5-1.9 9.9-5.5 11.8-.6.2-1.3.4-2 .4zm-15.3-12.8c3.3 4.1 12.4 13.8 16.8 11.5 3.3-1.7 7-7.5 5.2-10.4-2.6-4-4.9-8.5-5.2-9l-16.8-19.5v27.4z" class="color060405 svgShape"/><path fill="#ffffff" d="M96.9 139c.3.4 3 28.3 19.8 26.5s12.4-36.6 4.9-44.3-22.8-.8-22.8-.8l-5 12.1 3.1 6.5z" class="colorfff svgShape"/><path fill="#060405" d="M115.2 166c-9.2 0-15.7-9.2-18.6-26-.1-.4-.1-.7-.1-.8l-3.2-6.8 5.2-12.5.2-.1c.6-.3 15.7-7 23.4.9 5.6 5.7 9.1 24.6 5.1 36-2 5.5-5.5 8.7-10.3 9.2-.6.1-1.2.1-1.7.1zm-17.8-27.2c.1.1.1.3.2 1.1 2.9 17.5 9.5 26.2 19.1 25.1 4.4-.5 7.6-3.4 9.5-8.6 3.9-10.9.5-29.5-4.8-34.9-6.8-6.9-20.4-1.5-22.1-.8l-4.9 11.7 3 6.4z" class="color060405 svgShape"/><ellipse cx="110.9" cy="139.2" fill="#060405" rx="1.2" ry="1.7" transform="rotate(-2.204 110.924 139.23) scale(1.00004)" class="color060405 svgShape"/><ellipse cx="122" cy="139.1" fill="#060405" rx="1.2" ry="1.7" transform="rotate(-2.204 122.04 139.137) scale(1.00004)" class="color060405 svgShape"/><path fill="#060405" d="m116.5 149.8-.6-.8c.4-.4 1-.4 1.6-.5.3-.1.6-.2.7-.4 0-.2-.2-.5-.5-.7-1.7-1.8-2.4-4.5-1.9-6.8l1 .2c-.5 2.1.1 4.4 1.6 5.9.4.4.9.9.8 1.6-.1.6-.7 1-1.5 1.2-.5.1-.9.1-1.2.3zM114.7 158.4c-.5 0-1-.1-1.5-.3-.9-.4-1.6-1.2-2-2.1l.9-.4c.3.7.8 1.2 1.5 1.5.7.3 1.4.3 2.1 0l.4.9c-.5.3-1 .4-1.4.4zM131.4 125.8c-.7.4-1.4.8-2.3 1.1-6.6 2.2-24.5-1.9-25.1.6-.5 2.5-1.6 17.5-2.8 15.7-2.2-3.5-3-9.2-3.1.7.1 3.7-1 9.4-1 9.4-9.6-.3-18.8-22.8-9.4-24.3 0 0-2.9-4.5-1.1-8.5 1.8-4 14.4-26.1 38.7-9.1.5-.6 4.8-5.7 6.6-2.1 1.6 3.3 4.4 13.4-.5 16.5z" class="color060405 svgShape"/><path fill="#bdd6ff" d="M556 108.4v77.2c0 5.6-4.5 10.1-10.1 10.1h-84.7c-5.6 0-10.1-4.5-10.1-10.1v-77.2c0-5.6 4.5-10.1 10.1-10.1h84.7c5.6.1 10.1 4.6 10.1 10.1z" class="colorbdd6ff svgShape"/><path fill="#ffffff" d="M482.3 160.7v13.2c0 1.5-1.2 2.8-2.8 2.8h-9.2c-1.5 0-2.8-1.2-2.8-2.8v-13.2c0-1.5 1.2-2.8 2.8-2.8h9.2c1.5.1 2.8 1.3 2.8 2.8zM501.4 160.7v13.2c0 1.5-1.2 2.8-2.8 2.8h-9.2c-1.5 0-2.8-1.2-2.8-2.8v-13.2c0-1.5 1.2-2.8 2.8-2.8h9.2c1.5.1 2.8 1.3 2.8 2.8zM520.5 160.7v13.2c0 1.5-1.2 2.8-2.8 2.8h-9.2c-1.5 0-2.8-1.2-2.8-2.8v-13.2c0-1.5 1.2-2.8 2.8-2.8h9.2c1.6.1 2.8 1.3 2.8 2.8zM539.6 160.7v13.2c0 1.5-1.2 2.8-2.8 2.8h-9.2c-1.5 0-2.8-1.2-2.8-2.8v-13.2c0-1.5 1.2-2.8 2.8-2.8h9.2c1.6.1 2.8 1.3 2.8 2.8z" class="colorfff svgShape"/><path d="m477.5 167.9-1.4-.6 1.5-.6c.3-.2.5-.6.3-1.1-.3-.5-.9-.4-1.1-.3 0 0-.1 0-1.2 1 .2-1.5.2-1.5.2-1.6 0-.2-.1-.4-.2-.6-.3-.3-.8-.3-1.1 0-.2.2-.2.3-.2.6 0 0 0 .1.2 1.6-1.2-.9-1.2-1-1.2-1-.4-.2-.8-.1-1.1.3-.2.3-.2.9.3 1.1l1.4.6-1.5.6c-.4.2-.5.7-.3 1.1.3.4.7.5 1.1.3 0 0 .1 0 1.3-1-.2 1.5-.2 1.5-.2 1.6 0 .4.4.8.8.8s.8-.3.8-.8c0 0 0-.1-.2-1.6 1.2.9 1.2 1 1.3 1 .3.2.8.1 1.1-.3-.1-.4-.2-.9-.6-1.1zM496.6 167.9l-1.4-.6 1.5-.6c.2-.2.4-.4.4-.7 0-.1 0-.3-.1-.4-.3-.5-.9-.4-1.1-.3 0 0-.1 0-1.2 1 .2-1.5.2-1.5.2-1.6 0-.2-.1-.4-.2-.6-.3-.3-.8-.3-1.1 0-.2.2-.2.3-.2.6 0 0 0 .1.2 1.6-1.2-.9-1.2-1-1.2-1-.4-.2-.8-.1-1.1.3-.2.3-.2.9.3 1.1l1.4.6-1.5.6c-.4.2-.5.7-.3 1.1.3.4.7.5 1.1.3 0 0 .1 0 1.3-1-.2 1.5-.2 1.5-.2 1.6 0 .4.4.8.8.8s.8-.3.8-.8c0 0 0-.1-.2-1.6 1.2.9 1.2 1 1.3 1 .3.2.8.1 1.1-.3-.1-.4-.1-.9-.6-1.1zM515.7 167.9l-1.4-.6 1.5-.6c.3-.2.5-.6.3-1.1-.3-.5-.9-.4-1.1-.3 0 0-.1 0-1.2 1 .2-1.5.2-1.5.2-1.6 0-.2-.1-.4-.2-.6-.3-.3-.8-.3-1.1 0-.2.2-.2.3-.2.6 0 0 0 .1.2 1.6-1.2-.9-1.2-1-1.2-1-.4-.2-.8-.1-1.1.3-.2.3-.2.9.3 1.1l1.4.6-1.5.6c-.4.2-.5.7-.3 1.1.3.4.7.5 1.1.3 0 0 .1 0 1.3-1-.2 1.5-.2 1.5-.2 1.6 0 .4.4.8.8.8s.8-.3.8-.8c0 0 0-.1-.2-1.6 1.2.9 1.2 1 1.3 1 .3.2.8.1 1.1-.3 0-.4-.1-.9-.6-1.1zM534.9 167.9l-1.4-.6 1.5-.6c.3-.2.5-.6.3-1.1-.3-.5-.9-.4-1.1-.3 0 0-.1 0-1.2 1 .2-1.5.2-1.5.2-1.6 0-.2-.1-.4-.2-.6-.3-.3-.8-.3-1.1 0-.2.2-.2.3-.2.6 0 0 0 .1.2 1.6-1.2-.9-1.2-1-1.2-1-.4-.2-.8-.1-1.1.3-.2.3-.2.9.3 1.1l1.4.6-1.5.6c-.4.2-.5.7-.3 1.1.3.4.7.5 1.1.3 0 0 .1 0 1.3-1-.2 1.5-.2 1.5-.2 1.6 0 .4.4.8.8.8s.8-.3.8-.8c0 0 0-.1-.2-1.6 1.2.9 1.2 1 1.3 1 .3.2.8.1 1.1-.3-.1-.4-.2-.9-.6-1.1z" fill="#000000" class="color000 svgShape"/><path fill="#6193f6" d="M531.6 118.8c0 10.8-6.2 20.2-15.2 24.9-3.9 2-8.2 3.1-12.9 3.1-4.6 0-9-1.1-12.9-3.1-9-4.7-15.2-14.1-15.2-24.9 0-15.5 12.6-28 28-28 15.7 0 28.2 12.6 28.2 28z" class="color6193f6 svgShape"/><path fill="#ff7545" d="M516.5 143.7c-3.9 2-8.2 3.1-12.9 3.1-4.6 0-9-1.1-12.9-3.1 3.1-3.7 7.7-6.1 12.9-6.1 5.2.1 9.8 2.4 12.9 6.1z" class="colorff7545 svgShape"/><path fill="#ffffff" d="M507.6 138.3c0 .7-8.1.7-8.1 0v-5.1h8.1v5.1z" class="colorfff svgShape"/><path fill="#060405" d="M491.7 122.2c1.9 2.1 4.9 2.3 7.7 2.3 5.1 0 10.2-.7 15.2-1.3.9-.1 1.9-.3 2.6-.8.9-.7 1.2-2.2.6-3.2-.4-.8-1.3-1.2-2-1.7-8.7-4.8-10.3-5.9-12.7-6.4-4.5-.9-9.1 1.3-11.1 1.2-.7 0-1-.4-1.3.3-1 3.2-1.2 7.1 1 9.6z" class="color060405 svgShape"/><path fill="#ffffff" d="M513 122.1c0 6.6-4.2 13.4-9.4 13.4s-9.4-6.8-9.4-13.4c.1-14 18.8-14 18.8 0z" class="colorfff svgShape"/><ellipse cx="507.6" cy="121.5" fill="#060405" rx="1" ry="1.3" class="color060405 svgShape"/><ellipse cx="499.8" cy="121.5" fill="#060405" rx="1" ry="1.3" class="color060405 svgShape"/><path fill="#060405" d="M503.6 131.7c-.9 0-1.7-.3-2.4-.8-.2-.2-.3-.5-.1-.7s.5-.3.7-.1c.6.4 1.3.6 2 .6s1.4-.3 2-.8c.2-.2.5-.2.7 0 .2.2.2.5 0 .7-.7.6-1.6 1-2.6 1-.2.1-.3.1-.3.1zM495.9 118.2c1.6-.1 3.1-.7 4.7-1 5.4-.8 10.4 3.8 15.9 3.4 1.2-.1 2.5-.5 3.2-1.4.8-.9 1-2.3.2-3.1-.7-.8-2.1-1-2.7-1.9-.6-1 0-2.2.7-3.2.7-.9 1.5-2 1.2-3.1-.3-1-1.3-1.6-2.4-1.8-1-.2-2.1-.1-3.2-.2s-2.2-.6-2.6-1.5c-.5-.9-.1-2.1.3-3s.9-2 .7-3c-.2-1.1-1.2-1.9-2.3-2.2-1.1-.3-2.3-.2-3.5 0-4.3.7-8.3 2.8-11.2 5.8-1.6 1.6-2.8 3.5-3.7 5.5-.8 1.8-1.7 4.3-1.4 6.2.5 2.6 3.1 4.6 6.1 4.5zM503.7 128.2c-.6-.3-.9-.9-.9-1.6 0-1.2.8-2.2.1-4.5-.1-.3.1-.5.3-.6.3-.1.5.1.6.3.7 2.5-.1 3.8-.1 4.7 0 .3.1.6.4.7.3.1.4.4.2.7-.1.3-.4.4-.6.3zM194 125.5c-7.4 2.4-15.1 1.1-21.1-2.8l3.8-5.1-.9-.7-.9-.7-3.8 5.2c-3.9-3-7-7.2-8.6-12.2-4.2-13.2 3.1-27.3 16.2-31.5 13.2-4.2 27.3 3 31.5 16.2 4.2 13.3-3 27.4-16.2 31.6z" class="color060405 svgShape"/><path fill="#060405" d="m160.6 132.1 1.6 1.2 13.2-17.6-1.7-1.2z" class="color060405 svgShape"/><path fill="#ffffff" d="m180.8 108.3-4.3-4.3c-.8-.8-.8-2.1 0-2.8.8-.8 2.1-.8 2.8 0l2.9 2.9 11.2-11.2c.8-.8 2.1-.8 2.8 0 .8.8.8 2.1 0 2.8l-12.6 12.6c-.8.8-2 .8-2.8 0z" class="colorfff svgShape"/><path fill="#c6e2fa" d="M520.6 287.1H494c-.2 0-.4-.2-.4-.4s.2-.4.4-.4h26.6c.2 0 .4.2.4.4s-.1.4-.4.4zM520.6 300.2H494c-.2 0-.4-.2-.4-.4s.2-.4.4-.4h26.6c.2 0 .4.2.4.4s-.1.4-.4.4zM515.8 293.6h-37.6c-.2 0-.4-.2-.4-.4s.2-.4.4-.4h37.6c.2 0 .4.2.4.4s-.2.4-.4.4z" class="colorc6e2fa svgShape"/><path fill="#c6e2fa" d="M499.6 287.1c-.2 0-.4-.2-.4-.4v-5.6c0-.2.2-.4.4-.4s.4.2.4.4v5.6c-.1.2-.2.4-.4.4zM508.9 293.6c-.2 0-.4-.2-.4-.4v-6.6c0-.2.2-.4.4-.4s.4.2.4.4v6.6c0 .3-.2.4-.4.4zM501.8 300c-.2 0-.4-.2-.4-.4v-6.4c0-.2.2-.4.4-.4s.4.2.4.4v6.4c0 .2-.2.4-.4.4zM199.9 352.2h-26.6c-.2 0-.4-.2-.4-.4s.2-.4.4-.4h26.6c.2 0 .4.2.4.4s-.2.4-.4.4zM199.9 365.3h-26.6c-.2 0-.4-.2-.4-.4s.2-.4.4-.4h26.6c.2 0 .4.2.4.4s-.2.4-.4.4zM195.1 358.8h-37.6c-.2 0-.4-.2-.4-.4s.2-.4.4-.4h37.6c.2 0 .4.2.4.4s-.2.4-.4.4z" class="colorc6e2fa svgShape"/><path fill="#c6e2fa" d="M178.8 352.2c-.2 0-.4-.2-.4-.4v-5.6c0-.2.2-.4.4-.4s.4.2.4.4v5.6c0 .2-.2.4-.4.4zM188.1 358.8c-.2 0-.4-.2-.4-.4v-6.6c0-.2.2-.4.4-.4s.4.2.4.4v6.6c0 .2-.2.4-.4.4zM181 365.1c-.2 0-.4-.2-.4-.4v-6.4c0-.2.2-.4.4-.4s.4.2.4.4v6.4c0 .3-.2.4-.4.4zM199.2 170.1h-26.6c-.2 0-.4-.2-.4-.4s.2-.4.4-.4h26.6c.2 0 .4.2.4.4s-.2.4-.4.4zM199.2 183.2h-26.6c-.2 0-.4-.2-.4-.4s.2-.4.4-.4h26.6c.2 0 .4.2.4.4s-.2.4-.4.4zM194.4 176.6h-37.6c-.2 0-.4-.2-.4-.4s.2-.4.4-.4h37.6c.2 0 .4.2.4.4s-.2.4-.4.4z" class="colorc6e2fa svgShape"/><path fill="#c6e2fa" d="M178.1 170.1c-.2 0-.4-.2-.4-.4v-5.6c0-.2.2-.4.4-.4s.4.2.4.4v5.6c0 .2-.2.4-.4.4zM187.5 176.6c-.2 0-.4-.2-.4-.4v-6.6c0-.2.2-.4.4-.4s.4.2.4.4v6.6c0 .3-.2.4-.4.4zM180.4 183c-.2 0-.4-.2-.4-.4v-6.4c0-.2.2-.4.4-.4s.4.2.4.4v6.4c-.1.2-.2.4-.4.4zM472.4 73.2h-26.6c-.2 0-.4-.2-.4-.4s.2-.4.4-.4h26.6c.2 0 .4.2.4.4s-.2.4-.4.4zM472.4 86.4h-26.6c-.2 0-.4-.2-.4-.4s.2-.4.4-.4h26.6c.2 0 .4.2.4.4s-.2.4-.4.4zM467.5 79.8H430c-.2 0-.4-.2-.4-.4s.2-.4.4-.4h37.6c.2 0 .4.2.4.4s-.2.4-.5.4z" class="colorc6e2fa svgShape"/><path fill="#c6e2fa" d="M451.3 73.2c-.2 0-.4-.2-.4-.4v-5.6c0-.2.2-.4.4-.4s.4.2.4.4v5.6c0 .2-.2.4-.4.4zM460.6 79.8c-.2 0-.4-.2-.4-.4v-6.6c0-.2.2-.4.4-.4s.4.2.4.4v6.6c0 .2-.2.4-.4.4zM453.5 86.1c-.2 0-.4-.2-.4-.4v-6.4c0-.2.2-.4.4-.4s.4.2.4.4v6.4c0 .3-.2.4-.4.4z" class="colorc6e2fa svgShape"/></svg>