<svg xmlns="http://www.w3.org/2000/svg" viewBox="0 0 1364 960"><path fill="#e3f0ff" d="M952.363 890.105c127.251.715 325.747 12.282 327.454-194.825.647-78.502-45.495-113.656-74.987-193.587-48.484-131.406 74.994-300.993-45.381-371.25-101.423-59.195-179.235 78.512-369.847 77.174-245.631-1.724-256.352-158.588-396.135-92.403-94.507 44.748 16.286 107.357-129.955 157.001-150.53 51.1-145.992 93.2-154.625 151.897-10.419 70.839 54.548 99.485 76.871 196.122 5.259 22.766-8.267 73.512-8.806 95.759-2.64 108.793 50.49 185.68 152.529 186.253l622.882-12.141z" class="colorE3F0FF svgShape"/><path fill="#3a67b3" d="M433.176 139.544a.532.532 0 0 1-.205-1.023s1.391-.579 3.955-1.593a.532.532 0 0 1 .391.989 263.561 263.561 0 0 0-3.937 1.585.507.507 0 0 1-.204.042zM622.247 143.33h-.006c-1.21 0-2.386-.115-3.494-.343a.533.533 0 0 1-.415-.628.536.536 0 0 1 .629-.414 16.35 16.35 0 0 0 3.28.321h.006c1.582 0 3.234-.206 4.911-.613a.532.532 0 1 1 .251 1.034c-1.759.426-3.496.643-5.162.643zm231.672-.513h-.005a213.787 213.787 0 0 1-8.519-.26.532.532 0 0 1-.504-.559.518.518 0 0 1 .558-.505c2.838.144 5.69.23 8.475.259a.533.533 0 0 1-.005 1.065zm8.499-.092a.532.532 0 0 1-.018-1.064c2.842-.092 5.689-.247 8.463-.463a.529.529 0 0 1 .572.49.531.531 0 0 1-.489.572c-2.79.217-5.653.373-8.51.465h-.018zm-25.475-.759c-.017 0-.032 0-.048-.002a233.6 233.6 0 0 1-8.471-.909.532.532 0 0 1 .134-1.056c2.806.353 5.642.657 8.431.905a.532.532 0 0 1-.046 1.062zm42.416-.569a.532.532 0 0 1-.066-1.06c2.839-.361 5.655-.796 8.372-1.292a.533.533 0 0 1 .192 1.047c-2.736.5-5.572.938-8.428 1.301a.58.58 0 0 1-.07.004zm-59.282-1.547a.499.499 0 0 1-.086-.007 252.708 252.708 0 0 1-8.383-1.503.532.532 0 0 1 .206-1.044c2.774.546 5.583 1.05 8.348 1.497a.531.531 0 0 1-.085 1.057zm-185.006-.471a.534.534 0 0 1-.286-.982c2.474-1.565 4.577-3.493 6.08-5.575a.533.533 0 0 1 .863.623c-1.582 2.192-3.786 4.216-6.373 5.852a.53.53 0 0 1-.284.082zm-23.433-.553a.528.528 0 0 1-.406-.189c-1.159-1.37-2.074-3.032-2.718-4.939a32.597 32.597 0 0 1-.849-2.956.531.531 0 1 1 1.035-.244c.221.934.498 1.897.822 2.86.602 1.78 1.45 3.325 2.523 4.592a.532.532 0 0 1-.407.876zm284.436-.498a.532.532 0 0 1-.127-1.048 123.935 123.935 0 0 0 8.145-2.294.532.532 0 1 1 .324 1.014 124.071 124.071 0 0 1-8.216 2.314.608.608 0 0 1-.126.014zm-92.674-1.757a.494.494 0 0 1-.121-.014 269.417 269.417 0 0 1-8.266-2.053.532.532 0 1 1 .273-1.029c2.728.724 5.497 1.412 8.233 2.045a.532.532 0 0 1-.119 1.051zm-358.349-1.672a.533.533 0 0 1-.188-1.031 650.432 650.432 0 0 1 7.991-2.949.533.533 0 0 1 .362 1.001 659.707 659.707 0 0 0-7.976 2.944.526.526 0 0 1-.189.035zm467.188-1.786a.533.533 0 0 1-.203-1.024 84.95 84.95 0 0 0 7.64-3.591.532.532 0 0 1 .503.938 85.903 85.903 0 0 1-7.738 3.637.516.516 0 0 1-.202.04zm-125.27-.9a.544.544 0 0 1-.153-.022c-2.7-.809-5.431-1.673-8.12-2.567a.533.533 0 0 1 .337-1.01c2.679.892 5.4 1.752 8.089 2.558a.531.531 0 0 1-.153 1.041zm-325.914-3.104a.532.532 0 0 1-.174-1.035 673.83 673.83 0 0 1 8.06-2.745.533.533 0 0 1 .337 1.009 709.235 709.235 0 0 0-8.048 2.741.537.537 0 0 1-.175.03zm309.786-2.265a.51.51 0 0 1-.183-.033 292.258 292.258 0 0 1-7.952-3.047.532.532 0 0 1 .395-.989 294.762 294.762 0 0 0 7.923 3.037.531.531 0 0 1-.183 1.032zm-126.785-1.063a.532.532 0 0 1-.532-.53c-.012-2.589-.97-5.1-2.844-7.465a.531.531 0 1 1 .833-.661c2.027 2.556 3.061 5.288 3.075 8.121a.533.533 0 0 1-.53.535h-.002zm283.104-.737a.533.533 0 0 1-.308-.966c2.403-1.712 4.562-3.533 6.417-5.414a.534.534 0 0 1 .758.748c-1.898 1.925-4.104 3.786-6.557 5.534a.542.542 0 0 1-.31.098zm-449.964-1.322a.532.532 0 0 1-.162-1.039 645.436 645.436 0 0 1 8.127-2.542.533.533 0 0 1 .312 1.017 660.184 660.184 0 0 0-8.114 2.538.519.519 0 0 1-.163.026zm130.394-1.003a.534.534 0 0 1-.53-.592 20.587 20.587 0 0 1 2.733-8.203.53.53 0 0 1 .729-.188.531.531 0 0 1 .188.729 19.524 19.524 0 0 0-2.591 7.782.534.534 0 0 1-.529.472zm147.445-2.137a.547.547 0 0 1-.2-.039 426.4 426.4 0 0 0-7.9-3.103.532.532 0 0 1 .378-.995c2.607.994 5.271 2.041 7.921 3.112a.533.533 0 0 1-.199 1.025zm-261.567-1.832a.532.532 0 0 1-.148-1.044 583.452 583.452 0 0 1 8.193-2.32.532.532 0 1 1 .283 1.026 609.79 609.79 0 0 0-8.179 2.316.517.517 0 0 1-.149.022zm245.683-4.22a.535.535 0 0 1-.179-.031c-2.689-.96-5.389-1.89-8.025-2.766a.532.532 0 1 1 .335-1.01c2.644.878 5.351 1.811 8.048 2.774a.532.532 0 0 1-.179 1.033zm-229.28-.294a.533.533 0 0 1-.133-1.048 510.978 510.978 0 0 1 8.261-2.068.532.532 0 0 1 .249 1.034c-2.773.67-5.524 1.36-8.244 2.064a.473.473 0 0 1-.133.018zm124.804-1.751a.535.535 0 0 1-.283-.081 42.944 42.944 0 0 0-4.018-2.208 59.39 59.39 0 0 0-3.488-1.555.532.532 0 0 1 .401-.985 60.937 60.937 0 0 1 3.553 1.583 44.374 44.374 0 0 1 4.117 2.263.532.532 0 0 1-.282.983zm-108.266-2.238a.532.532 0 0 1-.116-1.052c2.814-.626 5.615-1.22 8.327-1.768a.533.533 0 0 1 .21 1.043 430.146 430.146 0 0 0-8.307 1.764.486.486 0 0 1-.114.013zm196.607-1.069a.531.531 0 0 1-.156-.023 331.2 331.2 0 0 0-8.147-2.376.532.532 0 0 1 .285-1.026c2.682.744 5.431 1.546 8.174 2.384a.532.532 0 0 1-.156 1.041zm-107.194-.8a.53.53 0 0 1-.336-.945 31.176 31.176 0 0 1 2.388-1.754 90.536 90.536 0 0 0-7.226-1.551.531.531 0 0 1-.432-.615.527.527 0 0 1 .615-.433c2.874.5 5.655 1.113 8.264 1.823a39.61 39.61 0 0 1 3.711-1.988.532.532 0 1 1 .453.962c-2.7 1.273-5.089 2.748-7.102 4.383a.533.533 0 0 1-.335.118zm-72.738-1.493a.532.532 0 0 1-.093-1.056c2.846-.51 5.675-.983 8.407-1.405a.532.532 0 1 1 .162 1.052c-2.723.42-5.544.891-8.382 1.401a.596.596 0 0 1-.094.008zm163.552-2.247a.516.516 0 0 1-.128-.016 278.181 278.181 0 0 0-8.265-1.917.531.531 0 0 1-.407-.633.526.526 0 0 1 .632-.408c2.724.588 5.516 1.235 8.296 1.925a.532.532 0 0 1-.128 1.049zm-146.735-.341a.532.532 0 0 1-.065-1.061c2.873-.363 5.722-.679 8.47-.94a.544.544 0 0 1 .58.479.532.532 0 0 1-.48.58c-2.735.26-5.574.575-8.437.937a.396.396 0 0 1-.068.005zm42.415-1.287a140.221 140.221 0 0 0-8.502-.549.533.533 0 0 1-.514-.55c.011-.294.271-.541.551-.513 2.924.102 5.789.287 8.515.55a.532.532 0 0 1-.05 1.062zm-25.482-.303a.532.532 0 0 1-.03-1.064c2.901-.169 5.768-.277 8.522-.32.332.015.536.23.541.524a.533.533 0 0 1-.524.541c-2.739.043-5.59.15-8.476.318l-.033.001zm113.185-1.646a.632.632 0 0 1-.096-.008c-2.824-.511-5.64-.968-8.37-1.358a.532.532 0 1 1 .15-1.054c2.744.392 5.573.851 8.41 1.364a.533.533 0 0 1-.094 1.056zm-59.025-.078a.533.533 0 0 1-.147-1.044 74.68 74.68 0 0 1 8.354-1.845.538.538 0 0 1 .611.439.533.533 0 0 1-.439.612 73.478 73.478 0 0 0-8.234 1.818.551.551 0 0 1-.145.02zm42.198-2.311a176.158 176.158 0 0 0-8.503-.647.532.532 0 0 1-.504-.559c.015-.293.224-.521.558-.505 2.75.141 5.61.359 8.501.648.292.029.506.29.476.583a.53.53 0 0 1-.528.48zm-25.465-.512a.533.533 0 0 1-.039-1.063 123.35 123.35 0 0 1 8.529-.336h.003a.532.532 0 0 1 .003 1.064c-2.907.017-5.752.129-8.454.333l-.042.002zM938.908 112.819a.532.532 0 0 1-.458-.802 26.655 26.655 0 0 0 1.831-3.744.534.534 0 0 1 .992.389 27.665 27.665 0 0 1-1.906 3.895.533.533 0 0 1-.459.262z" class="color3A67B3 svgShape"/><path fill="#8eb2db" d="M1180.363 634.342c2.105-1.029 3.333-3.438 3.312-5.778-.021-2.34-1.145-4.573-2.725-6.299-1.581-1.726-3.594-2.999-5.658-4.103-3.417-1.828-7.178-3.268-11.017-3.438a110.86 110.86 0 0 1 13.634-10.245c.437-.279.878-.549 1.319-.821l5.805 10.698c1.291 2.379 2.631 4.82 4.718 6.546s5.126 2.589 7.561 1.398c2.105-1.029 3.333-3.438 3.312-5.778-.021-2.34-1.144-4.573-2.725-6.299-1.581-1.726-3.594-2.999-5.658-4.103-3.524-1.886-7.416-3.36-11.381-3.452a113.126 113.126 0 0 1 17.025-8.294l6.298 10.614c1.381 2.328 2.815 4.715 4.966 6.36 2.152 1.645 5.221 2.391 7.609 1.108 2.064-1.109 3.198-3.563 3.088-5.9-.111-2.337-1.319-4.526-2.965-6.19-1.646-1.664-3.706-2.859-5.812-3.884-3.371-1.641-7.051-2.909-10.768-3.011a111.351 111.351 0 0 1 13.155-3.861c1.321-.3 2.647-.566 3.978-.815l6.837 10.702c1.457 2.281 2.968 4.62 5.173 6.193 2.204 1.573 5.297 2.218 7.642.858 2.026-1.177 3.079-3.666 2.892-5.998-.187-2.333-1.467-4.48-3.167-6.089-1.7-1.609-3.798-2.736-5.937-3.691-3.055-1.365-6.346-2.421-9.661-2.62 4.54-.685 9.122-1.078 13.716-1.172l10.83 6.001c2.369 1.313 4.813 2.651 7.503 2.986 2.69.335 5.718-.568 7.132-2.878 1.223-1.997.963-4.686-.314-6.648-1.276-1.961-3.426-3.241-5.688-3.848-2.263-.607-4.645-.6-6.982-.423-4.306.326-8.715 1.283-12.258 3.709-.015-.001-.028-.004-.044-.003-4.89.092-9.768.523-14.595 1.277 3.053-1.675 5.651-4.218 7.867-6.942 1.478-1.818 2.843-3.77 3.634-5.973.791-2.203.965-4.698.08-6.864-.885-2.166-2.947-3.913-5.286-4.048-2.706-.156-5.175 1.815-6.433 4.214s-1.552 5.168-1.823 7.862l-1.241 12.307a111.288 111.288 0 0 0-17.297 4.704c2.752-2.423 4.763-5.688 6.311-9.047.98-2.127 1.817-4.356 2.036-6.686.219-2.33-.232-4.789-1.628-6.667-1.396-1.879-3.828-3.059-6.128-2.61-2.661.519-4.563 3.041-5.186 5.676-.623 2.635-.219 5.39.187 8.067l1.855 12.221c-.175.068-.352.132-.528.201a114.856 114.856 0 0 0-16.602 8.147c2.712-3.086 4.237-7.119 5.171-11.147.529-2.28.897-4.632.639-6.958-.258-2.326-1.199-4.642-2.947-6.199-1.748-1.557-4.37-2.221-6.531-1.316-2.5 1.046-3.853 3.9-3.929 6.606-.075 2.706.878 5.322 1.819 7.86l4.433 11.965-.219.137-.109-.051.048.089a112.864 112.864 0 0 0-14.51 10.64c1.15-3.506 1.249-7.365.901-11.072-.223-2.375-.623-4.767-1.62-6.933-.997-2.167-2.651-4.105-4.84-5.051-2.189-.946-4.936-.748-6.733.82-2.079 1.813-2.468 5.006-1.671 7.647.797 2.641 2.56 4.865 4.285 7.019l7.349 9.175.17.314a107.48 107.48 0 0 0-13.355 14.639c-.421.558.37 1.322.796.757a107.365 107.365 0 0 1 13.099-14.4l5.507 10.15c1.291 2.379 2.631 4.82 4.718 6.546 2.088 1.719 5.126 2.583 7.561 1.392z" class="color8EB2DB svgShape"/><path fill="#3a67b3" d="M1203.05 562.945c-3.73 2.296-8.57 3.207-8.57 3.207s-11.674 3.834-22.714 4.079c-3.905.058-9.881.204-16.77-2.312l-2.147-.872a16.356 16.356 0 0 1-2.035-1.027c-.504-.27-1.007-.54-1.488-.836a7.69 7.69 0 0 1-.765-.447c-8.234-4.997-12.705-12.008-14.33-14.75-1.507-2.665-6.672-12.38-5.383-24.839.807-7.709 4.144-18.027 9.043-18.175.943.025 1.823.365 2.934-.131 2.243-.905 2.551-3.763 3.322-7.509 1.411-6.939 2.067-10.418 4.021-12.005.88-.761 3.41-1.628 8.408-3.367 3.468-1.212 3.708-1.144 4.235-1.68 2.531-2.747-1.512-7.143-.619-13.287.72-4.708 4.179-9.506 8.731-10.778 2.691-.705 3.677.343 8.89-.386 3.682-.524 5.576-.833 7.141-1.858 6.083-4.002.768-15.153 6.075-18.005 2.624-1.405 6.703-.191 10.603.964 3.969 1.236 4.725 2.364 6.382 2.679 9.465 1.919 18.121-28.955 22.439-27.673 3.281.992 6.17 21.772 2.615 35.299-.591 2.088-1.846 6.132.127 10.319 2.235 4.847 6.492 5.022 7.298 8.533.362 1.778-.421 2.99-8.256 13.685-2.517 3.401-4.275 5.753-3.293 7.556.943 1.77 3.817 1.656 5.104 4.203.241.389.609 1.301.464 2.92-.37 5.374-5.597 10.978-8.22 13.67-5.219 5.406-8.329 7.703-7.542 9.225.845 1.48 4.316.293 6.43 2.651 1.457 1.704 1.347 4.249.927 5.841-.616 2.25-2.381 3.403-7.945 6.288-5.705 2.97-6.687 3.232-9.647 4.924-5.148 2.828-9.818 5.42-9.237 7.799.527 2.149 4.679 1.935 6.847 5.6.099.154 1.705 2.972.927 5.841-.506 1.907-2.125 3.506-4.002 4.654z" class="color3A67B3 svgShape"/><path fill="#ffffff" d="M1190.371 554.008c-2.569 2.893-6.931 1.584-10.253 1.27a57.61 57.61 0 0 0-9.508-.109c-6.034.432-11.965 1.86-17.568 4.131.012-.022.025-.041.037-.064 3.571-6.057 6.646-12.445 9.783-18.666 3.235-6.413 6.607-12.8 10.733-18.703 3.45-4.921 7.533-9.187 11.799-13.318l.007-.007c6.633-.781 13.116 1.094 19.726.889 5.792-.18 12.185-2.826 13.789-8.931.142-.543-.716-.696-.858-.155-1.696 6.456-8.953 8.395-14.822 8.215-5.643-.173-11.187-1.416-16.839-.973l.021-.021 1.519-1.455c4.157-3.95 8.267-8.008 11.286-12.908 2.11-3.381 3.909-6.936 5.583-10.53 6.165-1.092 12.22-4.022 16.59-8.551.39-.404-.274-.969-.663-.567-4.073 4.22-9.719 7.01-15.462 8.134.092-.186.163-.372.256-.559a272.596 272.596 0 0 0 10.553-26.545c.261-.787.532-1.587.779-2.386.169-.521-.615-.892-.784-.372-2.732 8.564-6.044 16.976-9.656 25.2-1.922 4.369-3.946 8.696-6.265 12.886-.544.958-1.089 1.891-1.688 2.779l-.003.004c-2.321-2.33-2.141-5.795-2.179-8.844a27.51 27.51 0 0 0-1.239-7.907 27.529 27.529 0 0 0-8.767-12.987c-.433-.355-1.001.306-.567.663a26.745 26.745 0 0 1 8.892 13.948c.728 2.812.764 5.59.828 8.471.06 2.696.516 5.436 2.526 7.392.008.008.017.002.026.01l-.004.005c-1.88 2.845-4.015 5.448-6.442 7.94-4.948 5.063-10.421 9.586-14.941 15.061-4.395 5.33-7.973 11.288-11.221 17.368-.281.517-.548 1.045-.817 1.573a.014.014 0 0 0-.002.006c-3.493-6.591-7.108-13.559-6.994-21.217.027-1.772.281-3.532.765-5.237.469-1.65 1.136-3.262 1.312-4.981.328-3.213-1.332-6.015-2.985-8.627-.301-.475-1.023.015-.722.489.945 1.493 1.904 3.013 2.457 4.704.567 1.735.488 3.434.02 5.185-.459 1.719-1.106 3.366-1.411 5.126a22.437 22.437 0 0 0-.285 4.808c.324 7.358 3.817 14.011 7.195 20.383a.34.34 0 0 0 .226.175l-.006.013c-4.097 7.879-7.825 16.026-12.414 23.622l-.043.07c-.055.06-.103.115-.116.19l-.016.025a83.294 83.294 0 0 1-2.978 4.613c.248.166.494.307.765.447a97.828 97.828 0 0 0 3.011-4.677l.006-.011a57.208 57.208 0 0 1 19.752-4.541c3.466-.162 6.916.024 10.355.472 3.001.39 6.377.633 8.583-1.852.374-.419-.289-.986-.662-.566z" class="colorFFF svgShape"/><path fill="#8eb2db" d="M172.601 568.348c-1.678-2.128-.719-5.489 1.419-7.144 2.138-1.656 5.038-1.958 7.747-1.805 4.382.247 8.317 1.405 12.374 2.796a184.66 184.66 0 0 1-13.935-14.699c-4.811 3.741-10.758 6.008-16.842 6.401-2.306.149-4.94-.114-6.365-1.932-1.666-2.124-.707-5.485 1.423-7.143 2.13-1.659 5.015-1.964 7.71-1.816 4.525.249 8.569 1.481 12.768 2.935-5.291-6.378-10.137-13.132-14.359-20.255-5.291 2.84-11.427 4.094-17.406 3.525-2.3-.218-4.859-.896-5.979-2.917-1.307-2.361.172-5.527 2.538-6.827 2.365-1.3 5.263-1.145 7.901-.571 4.274.93 7.96 2.691 11.731 4.703-4.333-7.579-8.132-15.837-9.38-24.504-.026-.18-.044-.362-.069-.543-5.691 2.117-12.018 2.503-17.921 1.071-2.245-.545-4.682-1.581-5.501-3.74-.957-2.524.96-5.446 3.486-6.395 2.527-.949 5.372-.381 7.901.563 4.456 1.664 8.083 4.203 11.844 6.997-1.168-10.05-.489-20.359-2.001-30.353-5.766 2.213-12.208 2.641-18.212 1.184-2.245-.545-4.682-1.58-5.501-3.741-.957-2.524.96-5.446 3.486-6.395 2.527-.949 5.372-.381 7.901.563 4.575 1.708 8.277 4.34 12.148 7.224-.422-2.491-.989-4.96-1.771-7.4-1.582-4.939-4.207-9.491-7.533-13.527-5.064 3.781-11.317 5.948-17.636 6.09-2.31.052-4.931-.322-6.279-2.198-1.575-2.192-.475-5.51 1.722-7.077 2.197-1.568 5.093-1.752 7.78-1.491 4.927.479 9.23 2.104 13.78 3.923-5.502-6.4-12.778-11.426-20.429-14.505-4.978 2.845-10.763 4.274-16.493 4.038-2.309-.095-4.901-.635-6.126-2.593-1.432-2.288-.124-5.529 2.168-6.954 2.293-1.425 5.195-1.425 7.859-.993 4.25.689 7.975 2.213 11.785 3.984.155-.016.323 0 .502.068 6.571 2.474 12.603 6.293 17.795 11.009a63.024 63.024 0 0 1 3.328 3.255c-2.029-5.195-2.629-10.948-1.671-16.445.396-2.276 1.271-4.775 3.373-5.734 2.456-1.12 5.497.601 6.609 3.06s.732 5.336-.045 7.922c-1.449 4.822-3.937 8.781-6.657 12.97 2.142 2.464 4.052 5.125 5.555 8.018 2.277 4.382 3.616 9.018 4.437 13.775.484-5.733 2.602-11.325 6.069-15.919 1.392-1.844 3.31-3.669 5.618-3.563 2.696.124 4.616 3.044 4.484 5.74-.133 2.696-1.784 5.082-3.655 7.027-3.586 3.728-7.732 6.146-12.2 8.706 1.127 7.885.996 16.052 1.451 23.919.143 2.476.355 4.93.698 7.36.21-6.244 2.374-12.411 6.132-17.404 1.389-1.846 3.306-3.673 5.613-3.57 2.697.121 4.621 3.038 4.491 5.734-.129 2.696-1.778 5.084-3.646 7.032-3.662 3.818-7.912 6.266-12.494 8.898.394 2.586.951 5.143 1.765 7.668 1.488 4.618 3.499 9.061 5.766 13.346a121.1 121.1 0 0 0 1.866 3.388c-.349-5.655.887-11.406 3.564-16.402 1.091-2.036 2.706-4.135 5.002-4.385 2.684-.293 5.031 2.297 5.315 4.981.284 2.684-.98 5.296-2.53 7.507-2.862 4.084-6.427 7.045-10.282 10.137 4.126 6.959 8.916 13.542 14.092 19.76-1.803-5.631-1.951-11.788-.384-17.49.613-2.228 1.722-4.632 3.906-5.385 2.552-.88 5.415 1.124 6.286 3.678.872 2.554.219 5.381-.802 7.881-1.937 4.742-4.859 8.493-8.03 12.479.693.819 1.39 1.634 2.095 2.44 3.869 4.424 7.953 8.689 12.26 12.714-1.672-5.511-1.771-11.497-.244-17.052.612-2.228 1.722-4.632 3.905-5.385 2.552-.88 5.415 1.124 6.287 3.679.872 2.554.218 5.382-.802 7.881-1.883 4.612-4.698 8.286-7.767 12.151 4.965 4.529 10.222 8.732 15.79 12.48 1.16.781-.131 2.526-1.288 1.747-5.623-3.784-10.923-8.04-15.932-12.616a31.034 31.034 0 0 1-16.958 6.408c-2.315.141-4.964-.126-6.4-1.947z" class="color8EB2DB svgShape"/><path fill="#3a67b3" d="M158.53 691.944c5.875.105 14.905-.54 28.938-6.485 8.599-3.678 20.545-8.704 32.372-20.118.511-.493 1.416-1.355 2.526-2.555.059-.053.126-.116.175-.177.11-.096.218-.21.336-.316.383-.395.78-.829 1.233-1.251 8.272-9.013 24.24-29.305 20.204-50.76-.212-1.238-3.268-16.819-11.535-18.234-10.355-1.665-21.529 19.836-25.777 17.693-2.145-1.097.06-6.696.281-13.948.65-16.291-8.524-36.894-22.726-39.448-6.711-1.274-14.805 1.522-19.657 7.343-7.991 9.371-.559 25.763-1.982 26.228-2.087.585-6.789-34.072-25.852-39.859-6.699-1.999-15.729-.602-19.305 4.353-5.228 7.273 3.648 19.225.214 21.789-3.64 2.717-12.848-10.953-30.883-13.932-4.58-.723-15.344-2.481-22.353 4.053-6.129 5.602-7.827 15.496-4.65 22.842 2.972 6.766 9.331 9.628 11.101 10.359 11.407 4.943 18.766-2.447 39.075-.789 7.086.555 14.825 2.15 15.028 4.549.031 1.778-4.253 2.376-8.756 6.924a2.812 2.812 0 0 0-.425.428c-1.356 1.404-6.158 6.43-6.047 12.913-.034.273.24 7.303 4.92 9.759 2.392 1.311 4.99.817 6.131.643 11.346-1.915 25.986-.849 26.349.994.476 2.099-17.848 5.016-18.759 12.151-.748 5.929 10.913 11.41 12.421 12.113 12.589 5.805 25.92 3.056 25.98 4.088.015.879-10.963.369-19.708 7.385-4.092 3.24-9.883 9.796-8.203 14.711 1.994 6.068 14.197 6.423 19.334 6.554z" class="color3A67B3 svgShape"/><path fill="#ffffff" d="M155.148 651.638c.364-2.521 2.947-3.729 5.195-4.171 2.833-.559 5.766-.366 8.594.121 5.95 1.026 11.757 3.505 17.885 3.195 3.097-.157 6.154-1.041 8.588-3.008-7.358-6.017-14-12.915-20.493-19.84-2.43-2.591-4.858-5.199-7.318-7.781-9.261-2.38-18.093 3.849-27.391 3.012-2.474-.223-4.846-.983-6.886-2.417-.343-.241.065-.75.407-.509 3.909 2.746 8.899 2.668 13.416 1.858 4.47-.802 8.764-2.411 13.287-2.953 2.129-.255 4.276-.228 6.376.187-6.659-6.954-13.578-13.673-21.474-19.214-9.563-6.708-20.642-11.789-32.422-12.591a47.064 47.064 0 0 0-4.426-.081c-.417 0-.489-.641-.074-.66 11.426-.282 22.467 3.617 32.155 9.458a85.378 85.378 0 0 1 4.824 3.154.298.298 0 0 1-.006-.232c2.13-5.38-1.503-10.603-4.859-14.514-1.836-2.139-3.778-4.218-5.243-6.64-1.218-2.011-2.245-4.352-1.76-6.747.083-.41.729-.317.646.095-.567 2.799 1.057 5.561 2.622 7.751 1.703 2.385 3.771 4.474 5.597 6.761 3.001 3.758 5.512 8.714 3.597 13.551-.062.156-.194.189-.321.17 8.848 6.215 16.558 13.918 23.973 21.769 4.111 4.352 8.178 8.764 12.363 13.052 4.579-5.455 6.885-12.874 6.402-19.961-.264-3.871-1.517-7.373-3.313-10.787-1.95-3.707-4.276-7.293-5.325-11.394-1.035-4.048-.632-8.701 2.422-11.809.291-.296.803.108.509.407-3.077 3.131-3.314 7.82-2.139 11.839 1.206 4.121 3.625 7.715 5.549 11.513 1.664 3.287 2.743 6.707 2.959 10.398.201 3.43-.244 6.883-1.224 10.173-1.095 3.679-2.896 7.16-5.378 10.097 5.108 5.209 10.402 10.219 16.214 14.657 4.027 3.08 8.332 5.873 12.861 8.197-2.092-10.338 5.578-19.312 7.41-29.069.537-2.855.563-5.789-.281-8.588-.121-.398.487-.637.608-.234 3.105 10.286-4.493 19.627-6.776 29.208-.69 2.895-.908 5.873-.283 8.799a.255.255 0 0 1-.045.206c3.445 1.723 7.014 3.177 10.706 4.229-.118.106-.226.22-.336.316a1.624 1.624 0 0 1-.175.177c-6.3-1.83-12.305-4.76-17.873-8.341-2.981-1.921-5.823-4.022-8.569-6.241-4.063 3.377-9.639 3.679-14.643 2.85-5.809-.963-11.413-3.306-17.369-3.277-2.746.014-7.621.493-8.12 3.956-.059.413-.703.318-.643-.097z" class="colorFFF svgShape"/><path fill="#ffbc47" d="M286.159 201.235h-5.934a77.481 77.481 0 0 0-8.287-21.623l4.92-4.92c7.351-7.35 7.351-19.268 0-26.619-7.351-7.351-19.268-7.351-26.619 0l-4.202 4.202a76.953 76.953 0 0 0-21.136-9.434l-.007-.002v-6.957c0-10.395-8.427-18.822-18.823-18.822-10.395 0-18.823 8.427-18.823 18.822v5.935a77.51 77.51 0 0 0-21.623 8.286l-4.92-4.92c-7.35-7.351-19.268-7.351-26.619 0-7.351 7.351-7.351 19.268 0 26.619l4.2 4.2a76.955 76.955 0 0 0-9.436 21.14l-.001.006h-6.954c-10.395 0-18.822 8.427-18.822 18.822 0 10.396 8.427 18.823 18.822 18.823h5.931a77.489 77.489 0 0 0 8.287 21.626l-4.916 4.916c-7.351 7.351-7.351 19.269 0 26.619 7.351 7.351 19.268 7.351 26.619 0l4.186-4.186a78.19 78.19 0 0 0 21.158 9.44v6.938c0 10.396 8.427 18.823 18.822 18.823 10.396 0 18.822-8.427 18.822-18.823v-5.93a77.49 77.49 0 0 0 21.626-8.288l4.916 4.916c7.351 7.351 19.268 7.351 26.619 0 7.35-7.35 7.35-19.268 0-26.619l-4.188-4.188.001-.001a78.19 78.19 0 0 0 9.438-21.156h6.941c10.396 0 18.823-8.427 18.823-18.822.001-10.396-8.426-18.823-18.821-18.823zm-26.089 16.781c0 30.944-25.1 56.044-56.045 56.044-30.944 0-56.045-25.1-56.045-56.044 0-30.962 25.101-56.044 56.045-56.044 30.945 0 56.045 25.082 56.045 56.044z" class="colorFFBC47 svgShape"/><path fill="#ffbc47" d="M168.605 218.016c0 19.563 15.859 35.421 35.421 35.421 19.563 0 35.439-15.859 35.439-35.421s-15.876-35.439-35.439-35.439c-19.563 0-35.421 15.876-35.421 35.439z" class="colorFFBC47 svgShape"/><path fill="#73b4ff" d="M442.509 130.631h-3.88a50.655 50.655 0 0 0-5.419-14.14l3.217-3.217c4.807-4.807 4.807-12.6 0-17.406-4.807-4.807-12.6-4.807-17.407 0l-2.747 2.748a50.326 50.326 0 0 0-13.821-6.169l-.005-.001v-4.55c0-6.798-5.511-12.308-12.308-12.308-6.798 0-12.308 5.51-12.308 12.308v3.881a50.678 50.678 0 0 0-14.139 5.418l-3.217-3.217c-4.806-4.807-12.6-4.807-17.406 0-4.807 4.807-4.807 12.6 0 17.406l2.746 2.746a50.324 50.324 0 0 0-6.17 13.823l-.001.004h-4.547c-6.798 0-12.308 5.51-12.308 12.308s5.511 12.308 12.308 12.308h3.878a50.699 50.699 0 0 0 5.419 14.142l-3.215 3.215c-4.807 4.807-4.807 12.6 0 17.406 4.807 4.807 12.6 4.807 17.406 0l2.738-2.738.003.002a51.13 51.13 0 0 0 13.833 6.171v4.537c0 6.798 5.51 12.308 12.308 12.308s12.308-5.51 12.308-12.308v-3.877a50.699 50.699 0 0 0 14.142-5.419l3.215 3.215c4.807 4.807 12.6 4.807 17.406 0 4.807-4.807 4.807-12.6 0-17.406l-2.739-2.739.001-.001a51.106 51.106 0 0 0 6.171-13.834h4.539c6.798 0 12.308-5.511 12.308-12.308s-5.511-12.308-12.309-12.308zm-17.059 10.973c0 20.235-16.413 36.648-36.648 36.648-20.234 0-36.648-16.413-36.648-36.648 0-20.246 16.414-36.648 36.648-36.648 20.235.001 36.648 16.402 36.648 36.648z" class="color73B4FF svgShape"/><path fill="#73b4ff" d="M365.64 141.604c0 12.792 10.37 23.162 23.162 23.162s23.174-10.37 23.174-23.162-10.382-23.174-23.174-23.174c-12.792.001-23.162 10.382-23.162 23.174z" class="color73B4FF svgShape"/><path fill="#b5bdff" d="M1146.471 264.417v559.626c0 8.487-6.676 15.366-14.928 15.366H231.196c-8.253 0-14.947-6.879-14.947-15.366V264.417c0-8.486 6.694-15.366 14.947-15.366h900.347c8.253 0 14.928 6.879 14.928 15.366z" class="colorB5BDFF svgShape"/><path fill="#ffffff" d="M1166.753 264.698v569.855c0 8.643-6.988 15.647-15.627 15.647H208.665c-8.639 0-15.646-7.004-15.646-15.647V264.698c0-8.641 7.007-15.647 15.646-15.647h942.461c8.639 0 15.627 7.005 15.627 15.647z" class="colorFFF svgShape"/><path fill="#999999" d="M664.889 223.861c0-9.818 7.896-17.777 17.633-17.777 9.74 0 17.636 7.958 17.636 17.777 0 9.818-7.896 17.776-17.636 17.776-9.737-.001-17.633-7.958-17.633-17.776z" class="color999 svgShape"/><path fill="#9598b8" d="M1222.642 905.132H142.404c-6.738 0-12.201-10.5-12.201-23.454 0-12.952 5.463-23.456 12.201-23.456h1080.238c6.738 0 12.198 10.504 12.198 23.456 0 12.954-5.461 23.454-12.198 23.454z" class="color9598B8 svgShape"/><path fill="#525675" d="M1158.08 196.356H201.692c-7.863 0-14.241 6.43-14.241 14.357v633.144c0 7.926 6.379 14.356 14.241 14.356h956.388c7.861 0 14.241-6.43 14.241-14.356V210.712c0-7.926-6.379-14.356-14.241-14.356zm4.779 634.091c0 8.582-6.911 15.537-15.454 15.537h-932.07c-8.544 0-15.473-6.955-15.473-15.537V264.588c0-8.581 6.93-15.537 15.473-15.537h932.07c8.544 0 15.454 6.956 15.454 15.537v565.859z" class="color525675 svgShape"/><circle cx="684.422" cy="433.201" r="93.601" fill="#73b4ff" transform="rotate(-45.001 684.42 433.21)" class="color73B4FF svgShape"/><circle cx="683.028" cy="406.725" r="36.337" fill="#ffffff" class="colorFFF svgShape"/><path fill="#ffffff" d="M716.356 443.355c-2.925-2.285-7.012-2.204-9.887.141a36.222 36.222 0 0 1-22.97 8.177 36.08 36.08 0 0 1-22.354-7.703c-2.931-2.299-7.086-2.253-9.913.172-7.331 6.286-11.795 15.351-11.795 27.133v1.063c0 6.093 4.94 11.033 11.033 11.033h67.903c6.093 0 11.033-4.94 11.033-11.033v-1.063c0-12.286-4.986-21.62-13.05-27.92z" class="colorFFF svgShape"/><path fill="#b0d5ff" d="M779.415 586.589H552.228c-5.627 0-10.188-4.561-10.188-10.188v-5.475c0-5.627 4.561-10.188 10.188-10.188h227.187c5.627 0 10.188 4.561 10.188 10.188v5.475c0 5.627-4.562 10.188-10.188 10.188zM779.415 646.088H552.907c-5.627 0-10.188-4.561-10.188-10.188v-5.475c0-5.627 4.561-10.188 10.188-10.188h226.508c5.627 0 10.188 4.561 10.188 10.188v5.475c0 5.626-4.562 10.188-10.188 10.188zM840.965 586.589h-28.044c-5.627 0-10.188-4.561-10.188-10.188v-5.475c0-5.627 4.561-10.188 10.188-10.188h28.044c5.627 0 10.188 4.561 10.188 10.188v5.475c0 5.627-4.561 10.188-10.188 10.188zM840.965 646.088h-28.044c-5.627 0-10.188-4.561-10.188-10.188v-5.475c0-5.627 4.561-10.188 10.188-10.188h28.044c5.627 0 10.188 4.561 10.188 10.188v5.475c0 5.626-4.561 10.188-10.188 10.188z" class="colorB0D5FF svgShape"/><path fill="#ffffff" d="m565.875 625.083.753 5.286a.42.42 0 0 0 .561.335l5.011-1.843c.449-.165.781.429.404.725l-4.201 3.295a.42.42 0 0 0-.01.653l4.101 3.418c.368.307.019.891-.426.713l-4.954-1.991a.42.42 0 0 0-.571.318l-.909 5.261c-.081.472-.762.462-.83-.012l-.753-5.286a.42.42 0 0 0-.561-.335l-5.011 1.843c-.449.165-.781-.429-.404-.725l4.201-3.295a.42.42 0 0 0 .01-.653l-4.102-3.418c-.368-.307-.019-.891.426-.713l4.954 1.991a.42.42 0 0 0 .571-.318l.909-5.261c.082-.472.763-.462.831.012zM589.483 625.083l.753 5.286a.42.42 0 0 0 .561.335l5.011-1.843c.449-.165.781.429.404.725l-4.201 3.295a.42.42 0 0 0-.01.653l4.102 3.418c.368.307.019.891-.426.713l-4.954-1.991a.42.42 0 0 0-.571.318l-.909 5.261c-.082.472-.762.462-.83-.012l-.753-5.286a.42.42 0 0 0-.561-.335l-5.011 1.843c-.449.165-.781-.429-.404-.725l4.201-3.295a.42.42 0 0 0 .01-.653l-4.102-3.418c-.368-.307-.019-.891.426-.713l4.954 1.991a.42.42 0 0 0 .571-.318l.909-5.261c.082-.472.763-.462.83.012zM613.091 625.083l.753 5.286a.42.42 0 0 0 .561.335l5.011-1.843c.449-.165.781.429.404.725l-4.201 3.295a.42.42 0 0 0-.01.653l4.102 3.418c.368.307.019.891-.426.713l-4.954-1.991a.42.42 0 0 0-.571.318l-.909 5.261c-.082.472-.762.462-.83-.012l-.753-5.286a.42.42 0 0 0-.561-.335l-5.011 1.843c-.449.165-.781-.429-.404-.725l4.201-3.295a.42.42 0 0 0 .01-.653l-4.102-3.418c-.368-.307-.019-.891.426-.713l4.954 1.991a.42.42 0 0 0 .571-.318l.909-5.261c.082-.472.763-.462.83.012zM636.699 625.083l.753 5.286a.42.42 0 0 0 .561.335l5.011-1.843c.449-.165.781.429.404.725l-4.201 3.295a.42.42 0 0 0-.01.653l4.102 3.418c.368.307.019.891-.426.713l-4.954-1.991a.42.42 0 0 0-.571.318l-.909 5.261c-.082.472-.762.462-.83-.012l-.753-5.286a.42.42 0 0 0-.561-.335l-5.011 1.843c-.449.165-.781-.429-.404-.725l4.201-3.295a.42.42 0 0 0 .01-.653l-4.102-3.418c-.368-.307-.019-.891.426-.713l4.954 1.991a.42.42 0 0 0 .571-.318l.909-5.261c.082-.472.763-.462.83.012zM660.308 625.083l.753 5.286a.42.42 0 0 0 .561.335l5.011-1.843c.449-.165.781.429.404.725l-4.201 3.295a.42.42 0 0 0-.01.653l4.102 3.418c.368.307.019.891-.426.713l-4.954-1.991a.42.42 0 0 0-.571.318l-.909 5.261c-.082.472-.762.462-.83-.012l-.753-5.286a.42.42 0 0 0-.561-.335l-5.011 1.843c-.449.165-.781-.429-.404-.725l4.201-3.295a.42.42 0 0 0 .01-.653l-4.102-3.418c-.368-.307-.019-.891.426-.713l4.954 1.991a.42.42 0 0 0 .571-.318l.909-5.261c.081-.472.762-.462.83.012zM560.446 573.663a3.031 3.031 0 1 1 6.062 0 3.031 3.031 0 0 1-6.062 0zM570.234 573.663a3.031 3.031 0 1 1 6.062 0 3.031 3.031 0 0 1-6.062 0zM580.023 573.663a3.031 3.031 0 1 1 6.062 0 3.031 3.031 0 0 1-6.062 0zM589.812 573.663a3.031 3.031 0 1 1 6.062 0 3.031 3.031 0 0 1-6.062 0zM599.6 573.663a3.031 3.031 0 1 1 6.062 0 3.031 3.031 0 0 1-6.062 0zM609.389 573.663a3.031 3.031 0 1 1 6.062 0 3.031 3.031 0 0 1-6.062 0zM619.178 573.663a3.031 3.031 0 1 1 6.062 0 3.031 3.031 0 0 1-6.062 0zM628.966 573.663a3.031 3.031 0 1 1 6.062 0 3.031 3.031 0 0 1-6.062 0z" class="colorFFF svgShape"/><path fill="#73b4ff" d="M748.15 728.798H627.646a8.47 8.47 0 0 1-8.469-8.469v-20.691a8.47 8.47 0 0 1 8.469-8.469H748.15a8.47 8.47 0 0 1 8.469 8.469v20.691a8.469 8.469 0 0 1-8.469 8.469z" class="color73B4FF svgShape"/><path fill="#b0d5ff" d="M722.386 757.761h-72.772a1.544 1.544 0 0 1-1.544-1.544v-.688c0-.853.691-1.544 1.544-1.544h72.772c.853 0 1.544.691 1.544 1.544v.688c0 .853-.691 1.544-1.544 1.544zM748.247 771.99H623.753a1.544 1.544 0 0 1-1.544-1.544v-.688c0-.853.691-1.544 1.544-1.544h124.494c.853 0 1.544.691 1.544 1.544v.688c0 .852-.691 1.544-1.544 1.544z" class="colorB0D5FF svgShape"/><path fill="#ffffff" d="m632.109 712.032 5.654-.354c.123.918.372 1.618.748 2.099.612.779 1.486 1.168 2.624 1.168.848 0 1.502-.199 1.961-.597.459-.398.689-.859.689-1.384 0-.498-.219-.945-.656-1.338-.437-.394-1.452-.765-3.043-1.115-2.607-.586-4.465-1.364-5.576-2.335-1.119-.971-1.679-2.208-1.679-3.713 0-.988.286-1.922.859-2.801.573-.879 1.434-1.57 2.584-2.073 1.15-.503 2.727-.755 4.73-.755 2.457 0 4.331.457 5.621 1.371 1.29.914 2.057 2.368 2.303 4.362l-5.602.328c-.149-.866-.461-1.495-.938-1.889-.477-.394-1.135-.591-1.975-.591-.691 0-1.211.147-1.561.44-.35.293-.525.649-.525 1.069 0 .306.144.582.433.826.28.253.945.49 1.994.708 2.598.56 4.458 1.126 5.582 1.699 1.123.573 1.941 1.283 2.453 2.132.511.849.767 1.797.767 2.847a6.1 6.1 0 0 1-1.023 3.411c-.682 1.041-1.635 1.83-2.86 2.368-1.224.538-2.768.807-4.631.807-3.271 0-5.536-.63-6.796-1.889-1.258-1.258-1.971-2.859-2.137-4.801zM652.391 699.163h5.34v3.634h-5.34v-3.634zm0 5.3h5.34v13.933h-5.34v-13.933zM670.837 704.463h4.998v13.159l.013.617c0 .874-.186 1.707-.557 2.499-.372.792-.866 1.432-1.482 1.922-.617.49-1.399.844-2.349 1.063-.949.219-2.036.328-3.26.328-2.799 0-4.721-.42-5.766-1.26-1.046-.84-1.568-1.964-1.568-3.372 0-.175.009-.411.026-.708l5.183.59c.131.481.332.813.603.997.393.271.888.406 1.482.406.769 0 1.345-.206 1.725-.616.381-.411.571-1.128.571-2.151v-2.112c-.525.621-1.049 1.071-1.574 1.351a5.576 5.576 0 0 1-2.663.656c-1.863 0-3.367-.813-4.513-2.441-.814-1.154-1.22-2.68-1.22-4.578 0-2.169.525-3.822 1.574-4.959 1.05-1.136 2.422-1.705 4.119-1.705 1.084 0 1.979.184 2.683.551.704.367 1.362.975 1.975 1.824v-2.061zm-5.025 6.756c0 1.006.214 1.751.643 2.237.429.485.993.728 1.692.728.664 0 1.222-.251 1.673-.754.45-.503.675-1.262.675-2.276 0-1.014-.236-1.791-.708-2.329-.472-.538-1.05-.807-1.732-.807s-1.226.247-1.633.741c-.406.494-.61 1.314-.61 2.46zM679.062 704.463h4.972v2.269c.744-.927 1.496-1.589 2.257-1.987.761-.398 1.688-.597 2.781-.597 1.478 0 2.634.44 3.47 1.319.835.879 1.253 2.237 1.253 4.073v8.856h-5.366v-7.661c0-.874-.162-1.493-.485-1.856-.324-.363-.779-.544-1.364-.544-.648 0-1.172.245-1.575.734-.402.49-.603 1.369-.603 2.637v6.691h-5.34v-13.934zM718.813 699.163h5.93v11.459a9.637 9.637 0 0 1-.532 3.219 6.958 6.958 0 0 1-1.666 2.648c-.756.756-1.55 1.287-2.381 1.593-1.155.428-2.541.643-4.159.643-.936 0-1.957-.066-3.064-.197s-2.031-.391-2.775-.78c-.743-.389-1.423-.942-2.04-1.659-.617-.716-1.039-1.455-1.266-2.215-.367-1.224-.551-2.307-.551-3.251v-11.459h5.93v11.731c0 1.049.291 1.868.872 2.458.582.59 1.388.885 2.42.885 1.023 0 1.826-.291 2.407-.872.582-.581.872-1.405.872-2.471v-11.732zM728.351 723.695v-19.233h4.998v2.06c.691-.866 1.325-1.452 1.902-1.758.779-.411 1.64-.617 2.585-.617 1.863 0 3.304.713 4.323 2.139 1.019 1.426 1.529 3.188 1.529 5.287 0 2.318-.556 4.086-1.667 5.307-1.111 1.22-2.514 1.83-4.211 1.83-.822 0-1.572-.14-2.25-.42a5.353 5.353 0 0 1-1.817-1.246v6.651h-5.392zm5.353-12.227c0 1.102.232 1.92.695 2.453.463.534 1.05.8 1.758.8.621 0 1.141-.256 1.561-.767.42-.511.63-1.379.63-2.604 0-1.128-.219-1.957-.656-2.486-.437-.529-.97-.794-1.6-.794-.682 0-1.251.267-1.705.8-.456.534-.683 1.4-.683 2.598z" class="colorFFF svgShape"/><path fill="#b0d5ff" d="M256.161 290.158H975.39v28.85H256.161zM1003.39 290.158h50.959v28.85h-50.959zM1135.476 294.208h-51.916a1.88 1.88 0 0 1-1.88-1.88v-.29a1.88 1.88 0 0 1 1.88-1.88h51.916a1.88 1.88 0 0 1 1.88 1.88v.29a1.88 1.88 0 0 1-1.88 1.88zM1135.476 305.596h-51.916a1.88 1.88 0 0 1-1.88-1.88v-.29a1.88 1.88 0 0 1 1.88-1.88h51.916a1.88 1.88 0 0 1 1.88 1.88v.29a1.88 1.88 0 0 1-1.88 1.88zM1135.476 316.984h-51.916a1.88 1.88 0 0 1-1.88-1.88v-.29a1.88 1.88 0 0 1 1.88-1.88h51.916a1.88 1.88 0 0 1 1.88 1.88v.29a1.88 1.88 0 0 1-1.88 1.88z" class="colorB0D5FF svgShape"/><path fill="#30334d" d="M1082.285 63.073s9.05-6.593 3.103-16.289c-5.947-9.696-19.134-6.981-21.612-1.896-4.891-.819-8.707 2.464-10.838 5.516-1.68 2.407-3.684 7.239-1.228 16.677 2.456 9.437-11.032 14.824-12.864 21.201-1.178 4.103.646 8.533 8.985 9.502 8.339.969 30.64-8.079 30.64-8.079 2.646-.006 12.514-9.836 3.814-26.632z" class="color30334D svgShape"/><path fill="#e3c0c1" d="M1146.45 282.419c-3.886-19.692-6.008-35.793-5.468-49.978.383-10.403 1.412-19.953 2.248-29.555l-60.333-34.538-19.17-10.978h36.737s52.404 16.99 61.292 31.802c5.977 9.968 4.74 32.43 1.934 52.801-2.963 21.364-7.668 40.446-7.668 40.446h-9.572z" class="colorE3C0C1 svgShape"/><path fill="#232538" d="m1146.3 281.983-3.093 10.114 1.936 15.721 3.113.151 2.839-13.762 5.026 9.138c1.354 2.46 3.385 4.473 6.17 4.834 7.345.952 21.698 1.2 22.293-3.62.611-4.953-13.302-5.165-17.365-10.611-3.935-5.274-8.666-12.172-8.666-12.172l-12.253.207zM1163.69 241.973l-12.496 2.056-10.212-11.588-45.102-51.146-12.983-12.948-10.997-10.977h28.564s52.404 16.99 61.292 31.802c5.977 9.968 4.739 32.43 1.934 52.801z" class="color232538 svgShape"/><path fill="#ffd8d9" d="M1157.287 283.004c-10.979-9.41-18.275-21.339-23.973-34.914-3.694-8.8-6.57-18.245-8.975-28.056 0 0-55.906-4.722-70.615-26.122-10.021-14.586-1.986-36.542-1.986-36.542 9.55.296 22.08-1.795 29.992.767 29.818 9.636 61.832 22.34 69.273 42.973 4.392 12.181 7.424 25.651 10.457 40.585 2.509 12.338 4.77 26.674 8.082 41.104l-12.255.205z" class="colorFFD8D9 svgShape"/><path fill="#30334d" d="m1161.459 241.695-18.647 4.234-9.498 2.161c-3.694-8.8-6.57-18.245-8.975-28.056 0 0-32.92-2.788-54.879-13.732-6.657-3.328-12.321-7.406-15.737-12.39-9.167-13.349-3.224-32.883-2.143-36.09.105-.296.157-.453.157-.453h.069c9.55.278 23.144-2.701 31.038-.139 29.818 9.636 62.146 22.828 69.588 43.46 4.409 12.182 5.995 26.07 9.027 41.005z" class="color30334D svgShape"/><path fill="#cccccc" d="M1069.46 206.302c-6.657-3.328-12.321-7.406-15.737-12.39-9.167-13.349-3.224-32.883-2.143-36.09.105-.296.157-.453.157-.453h.069l9.341 3.886c-6.654 16.87-2.856 31.684 8.313 45.047z" class="colorCCC svgShape"/><path fill="#d94559" d="M1087.96 118.695c6.276 7.583 17.492 16.373 23.917 23.83 3.167-2.746 6.856-4.105 9.508-7.604-10.793-16.367-22.801-32.892-36.593-46.929 2.572 10.68.167 20.178 3.168 30.703z" class="colorD94559 svgShape"/><path fill="#d94559" d="M1103.113 158.258c-14.778-1.969-26.908 4.165-41.965 2.997a49.518 49.518 0 0 1-5.577-.749c-3.503-.697-5.943-3.903-5.577-7.458l4.966-48.445 4.374-14.899 1.011-3.415 7.833-4.201 8.614.297c12.844 5.576 21.702 20.668 13.912 37.344-7.563 16.207 12.409 38.529 12.409 38.529z" class="colorD94559 svgShape"/><path fill="#ffd8d9" d="M1077.168 82.517c0 4.875-4.527 4.875-9.068 0l1.066-5.893.659-3.665 6.828 3.414.503 6.013.012.131z" class="colorFFD8D9 svgShape"/><path fill="#cccccc" d="M1065.592 116.854c-3.434 9.341-6.919 31.629-4.444 44.402a49.518 49.518 0 0 1-5.577-.749c-3.503-.697-5.943-3.903-5.577-7.458l4.966-48.445 4.374-14.899c3.851 3.032 6.062 6.792 6.062 6.792s4.413 8.977.196 20.357z" class="colorCCC svgShape"/><path fill="#ffd8d9" d="M1107.032 141.665c-3.921 5.964-6.318 4.89-11.573 5.207-6.847-.392-14.187.66-21.107.12-8.349-.652-20.627 2.045-27.421-3.502-6.794-5.547 1.815-32.918 3.822-39.075 2.665-8.175 5.65-11.739 9.578-18.209-1.761 6.267-3.522 12.252-5.285 18.408 1.106 9.533 2.036 19.118 3.021 28.648 6.75.911 11.822 1.512 18.948 2.722 6.29 1.069 14.875 2.535 21.425 4.324 5.775-3.14 12.512-4.607 8.592 1.357z" class="colorFFD8D9 svgShape"/><path fill="#d94559" d="M1077.243 135.144c-.704 3.809-1.987 8.888-2.974 12.845-8.831.414-19.458 2.156-27.691-4.775-8.234-6.93-2.69-35.006.635-42.685 3.571-8.244 6.549-10.871 13.14-14.356 12.612 12.68-.636 30.29-2.254 47.101 6.247.795 12.929.86 19.144 1.87z" class="colorD94559 svgShape"/><path fill="#cccccc" d="M1076.996 80.472c-.467.06-1.974.6-2.517.504-2.83-.499-4.09-1.789-5.312-4.352l.659-3.665 6.828 3.414.342 4.099z" class="colorCCC svgShape"/><path fill="#ffd8d9" d="M1082.434 50.782s-3.462 7.335-15.083 10.055c0 0-3.626-3.956-5.193-1.483-1.566 2.472 2.226 6.84 2.226 6.84.435 7.184 5.604 12.884 10.961 11.538 12.182-3.061 7.089-26.95 7.089-26.95z" class="colorFFD8D9 svgShape"/><path fill="#30334d" d="m1157.287 283.004-3.093 10.114 1.936 15.721 3.113.152 2.839-13.762 5.026 9.138c1.354 2.46 3.385 4.474 6.17 4.835 7.345.952 21.698 1.2 22.293-3.619.611-4.953-13.302-5.166-17.366-10.611-3.935-5.274-8.665-12.172-8.665-12.172l-12.253.204z" class="color30334D svgShape"/><path fill="#c8cbe3" d="m1086.573 164.097 10.197-30.609a5.92 5.92 0 0 1 5.175-3.045h45.559c4.284 0 7.15 4.409 5.41 8.324l-11.848 26.657a6.372 6.372 0 0 1-5.824 3.784h-44.984c-2.65 0-4.522-2.596-3.685-5.111z" class="colorC8CBE3 svgShape"/><circle cx="1121.672" cy="151.86" r="4.324" fill="#ffffff" class="colorFFF svgShape"/><path fill="#30334d" d="M377.648 854.182s-30.721 4.544-30.197 4.24c.525-.305 56.226 28.263 56.226 28.263l54.885-24.591-27.212-7.911h-53.702z" class="color30334D svgShape"/><path fill="#ffd8d9" d="M389.448 896.099c-.155.002-.311.003-.46.006l-.284.001c-7.816.09-12.919-.105-12.919-.105s-.375.084-1.059.225c-6.682 1.386-42.712 8.25-39.642-5.326 2.691-11.92 24.308-10.439 32.977-9.345.034 0 .06.006.086.011 2.163.276 3.496.52 3.496.52s4.301-1.849 11.089-4.482c.28-.111.567-.226.853-.335 22.361-8.678 69.39-25.128 81.563-15.242l-.001.007c.134.102.265.217.39.332.008-.005.019.004.023.018.13.122.252.249.374.376.107.103.211.219.306.347.039.036.077.084.114.132a7.838 7.838 0 0 1 .749 1.136c.107.198.2.399.285.606.197.446.348.923.459 1.426.109.509.201 1.008.261 1.499.113.881.157 1.734.118 2.57-.981 21.922-53.298 25.285-78.778 25.623z" class="colorFFD8D9 svgShape"/><path fill="#222438" d="m389.853 898.655-.865-2.55-.376-1.112c-.005-.008-.004-.014-.004-.014l-5.878-17.374-.844-2.492c22.383-8.688 70.869-23.415 83.251-13.107l.005.007c.138.11.27.226.392.352.008-.005.019.004.023.018.13.122.252.249.374.376.107.103.211.219.306.347.039.036.077.084.114.132a7.838 7.838 0 0 1 .749 1.136c.107.198.2.399.285.606.197.446.348.923.459 1.426.109.509.201 1.008.261 1.499.113.881.157 1.734.118 2.57-.9 22.196-52.877 27.844-78.37 28.18zM371.628 882.147s-40.758-7.964-42.534 9.266c-1.908 18.51 46.677 4.651 46.677 4.651s-18.738 4.1-17.848-6.409c.86-10.168 13.705-7.508 13.705-7.508z" class="color222438 svgShape"/><path fill="#ffd8d9" d="M432.189 812.203c-7.998 11.233-.844 41.979-.844 41.979h-53.698c1.484-2.104 5.665-28.604-3.753-43.213-15.197-23.566 1.176-41.889 1.176-41.889l22.332-4.06 1.425-7.11.978-4.897.23-1.138h10.044l.365 2.136.787 4.654 1.163 6.867 20.529 4.456c.001-.001 17.583 16.481-.734 42.215z" class="colorFFD8D9 svgShape"/><path fill="#d94559" d="M432.186 812.21c-8.001 11.231-.837 41.972-.837 41.972h-53.701c1.263-1.791 4.478-21.287-.411-36.041-.852-2.584-1.953-5.006-3.347-7.179-15.194-23.562 1.175-41.883 1.175-41.883l22.344-4.067c.857 4.997 13.04 4.703 14.989.514l20.524 4.463c-.002 0 17.585 16.471-.736 42.221z" class="colorD94559 svgShape"/><path fill="#c4626e" d="M377.648 854.182c1.263-1.791 4.478-21.287-.411-36.041 10.589-3.077 8.801 26.315 26.44 36.041h-26.029z" class="colorC4626E svgShape"/><path fill="#ffd8d9" d="M461.392 835.572c-.558 3.479-3.009 7.252-6.636 10.981-9.277 9.527-28.174 9.102-41.137 12.566l-1.353-6.906s23.141-6.526 28.118-14.645c.528-.866.895-1.673 1.043-2.393 1.688-8.089-7.678-18.204-7.678-18.204l-.997-46.963c0 .001 31.458 47.874 28.64 65.564z" class="colorFFD8D9 svgShape"/><path fill="#d94559" d="M461.7 835.57c-.601 3.273-2.564 7.384-5.83 10.971a1.05 1.05 0 0 1-1.343.166l-3.977-2.583-10.427-6.757c.53-.863.799-1.733.946-2.455 1.688-8.088-13.317-20.599-13.317-20.599l3.606-44.594c4.833-.217 12.773 10.811 19.365 24.333 0 0 .006.019.019.051 7.136 14.627 12.672 32.151 10.958 41.467z" class="colorD94559 svgShape"/><path fill="#ffd8d9" d="m396.52 852.329.235 4.593c.415-.144.381-.747-.049-.835-11.552-2.387-30.538.916-39.783-6.935-5.696-4.845-8.806-10.809-9.541-15.403-2.818-17.69 27.866-64.632 27.866-64.632l-1.134 46.902s-9.366 10.115-7.678 18.204c.293 1.439 1.439 3.215 3.098 5.153 6.929 8.131 26.986 12.953 26.986 12.953z" class="colorFFD8D9 svgShape"/><path fill="#d94559" d="M366.433 834.221c.294 1.439 2.257 2.698 3.913 4.635l-9.686 8.056-3.893 3.235c-5.696-4.846-9.04-11.048-10.293-15.53-1.937-6.899.819-18.688 5.466-30.394.019-.064.032-.096.032-.096 7.013-17.665 18.297-35.106 24.192-35.247l3.401 47.593s-14.82 9.661-13.132 17.748z" class="colorD94559 svgShape"/><path fill="#ffd8d9" d="M472.482 889.384c3.234 13.803-33.512 7.112-40.331 5.755-.698-.138-1.08-.22-1.08-.22s-5.325.249-13.447.216l-.475-.001c-11.792-.061-29.234-.706-44.862-3.494-19.174-3.416-35.629-10.04-35.6-22.741.001-.028.003-.049-.001-.068.005-.518.035-1.041.098-1.578.004-.014.002-.021.001-.027.067-.552.159-1.109.276-1.679.109-.512.258-1 .455-1.456a6.54 6.54 0 0 1 .285-.62 8.79 8.79 0 0 1 .362-.616s.007-.001.005-.008a7.55 7.55 0 0 1 .386-.539.98.98 0 0 1 .115-.135 2.83 2.83 0 0 1 .309-.356c.123-.13.246-.26.378-.385.004-.015.015-.024.023-.019 1.483-1.383 3.56-2.317 6.109-2.885 17.529-3.899 57.315 9.741 77.483 17.377.292.109.586.224.871.334 6.935 2.626 11.331 4.473 11.331 4.473s1.356-.261 3.557-.559c.026-.005.054-.005.087-.012 8.821-1.185 30.818-2.874 33.665 9.243z" class="colorFFD8D9 svgShape"/><path fill="#30334d" d="m424.681 873.696-.838 2.545-6.218 18.895-.86 2.604c-10.701-.05-25.988-.984-40.335-3.644l-.008-.006c-20.891-3.869-39.809-11.398-39.735-25.19.001-.028.003-.049-.001-.068.005-.518.041-1.049.098-1.578.004-.014.002-.021.001-.027.067-.552.159-1.109.276-1.679.109-.512.258-1 .455-1.456a6.54 6.54 0 0 1 .285-.62 8.79 8.79 0 0 1 .362-.616s.007-.001.005-.008a7.55 7.55 0 0 1 .386-.539.98.98 0 0 1 .115-.135 2.83 2.83 0 0 1 .309-.356c.123-.13.246-.26.378-.385.004-.015.015-.024.023-.019 1.532-1.477 3.72-2.503 6.41-3.15 18.027-4.399 58.764 7.816 78.892 15.432zM435.185 880.776s41.445-8.452 43.398 9.081c2.099 18.836-47.501 5.129-47.501 5.129s18.119 3.431 17.125-7.264c-.962-10.35-13.022-6.946-13.022-6.946z" class="color30334D svgShape"/><path fill="#ffffff" d="M442.041 812.746v44.075a4.298 4.298 0 0 1-4.296 4.297h-67.533a4.298 4.298 0 0 1-4.297-4.297v-44.075a4.298 4.298 0 0 1 4.297-4.297h67.533a4.298 4.298 0 0 1 4.296 4.297z" class="colorFFF svgShape"/><path fill="#d7e0fa" d="M397.253 834.784a6.725 6.725 0 1 1 13.45 0 6.725 6.725 0 0 1-13.45 0z" class="colorD7E0FA svgShape"/><path fill="#d7e0fa" d="M442.041 812.746v44.075a4.298 4.298 0 0 1-4.296 4.297h-67.533a4.298 4.298 0 0 1-4.297-4.297c68.301 3.136 76.126-6.882 71.83-48.372a4.298 4.298 0 0 1 4.296 4.297z" class="colorD7E0FA svgShape"/><path fill="#b53344" d="M461.7 835.57c-.601 3.273-2.564 7.384-5.83 10.971a1.05 1.05 0 0 1-1.343.166l-3.977-2.583c2.091-3.625 5.174-6.501 6.622-12.113 3.877-15.021-5.899-36.611-6.43-37.909 7.136 14.628 12.672 32.152 10.958 41.468z" class="colorB53344 svgShape"/><path fill="#222438" d="M391.22 739.669s-8.047-8.622-1.519-20.077c0 0 1.972 3.571 4.311 2.586 0 0 .123-8.375 17.122-10.1 0 0-1.232 3.325-.616 4.188 5.604-2.464 11.043 3.653 16.506 1.354 0 0 1.509 9.705-4.773 15.371 0 0 .954 3.351-1.263 6.678-2.217 3.326-29.768 0-29.768 0z" class="color222438 svgShape"/><path fill="#ffd8d9" d="M393.754 737.066s-3.671-3.59-4.017-.106c-.41 4.124 4.499 7.191 4.499 7.191s1.197 12.751 11.954 12.751c10.671 0 12.456-12.799 12.456-12.799s5.612-1.531 4.422-6.377c-.565-2.301-3.491.05-3.491.05v-6.056s-2.992 1.52-8.766-.956c-4.181-1.795-5.671-4.286-9.244-4.145-4.071.161-7.973 4.629-7.813 10.447z" class="colorFFD8D9 svgShape"/><path fill="#f9cbcb" d="M860.981 711.775s1.404 87.464 17.374 106.995c7.705 9.424 33.358 59.847 33.358 59.847 2.873.399 5.541-.18 7.608-3.619-5.226-28.551-12.196-52.991-23.436-67.187-5.866-40.264 11.34-57.836-7.643-96.017l-27.261-.019z" class="colorF9CBCB svgShape"/><path fill="#f9cbcb" d="M854.132 711.77c-6.738 41.97-4.306 65.89.992 109.68.054.444.132.894.233 1.328l15.594 67.079 7.859 1.086c1.982-22.164.834-50.035-3.08-68.782 2.909-54.652 30.409-69.866 4.816-110.37l-26.414-.021z" class="colorF9CBCB svgShape"/><path fill="#30334d" d="M907.102 837.03c-8.783-1.091-16.789-6.159-22.374.226-4.086 4.658-8.808 8.451-14.666 10.375a27.817 27.817 0 0 1-8.079 1.401c-5.357.136-10.125-3.945-11.533-9.993-2.679-11.574-6.78-32.813-6.765-54.673.029-39.056 11.078-75.312 11.078-75.312s.172-.04.483-.12c3.601-.801 26.426-5.446 34.807 4.946 9.104 11.298 15.759 26.231 13.446 55.32-1.651 20.772 6.672 40.086 12.156 53.913 2.735 6.934-2.043 14.746-8.553 13.917z" class="color30334D svgShape"/><path fill="#f9cbcb" d="m860.743 643.991-9.557 20.249s-.326-.516-.877-1.43c-3.648-5.911-17.479-28.553-20.987-37.581-2.82-7.271-3.34-25.943-2.831-38.62.193-4.702.523-8.594.938-10.765 0 0-5.921-5.413-.424-8.423 5.29-2.89 1.575-11.35 3.556-11.624 1.981-.274 3.058 11.164 3.058 11.164s2.81-2.978 3.756-1.841c1.429 1.689-3.435 10.728-3.435 10.728a161.725 161.725 0 0 1 1.959 6.392c3.196 11.232 5.375 23.446 6.484 36.572 5.904 6.119 12.08 15.098 18.36 25.179z" class="colorF9CBCB svgShape"/><path fill="#3e3279" d="m887.134 710.961-34.121-.025c1.78-7.749 6.14-11.898-.254-29.488-2.665-7.322-3.125-13.523-2.45-18.639 1.697-12.71 10.434-18.818 10.434-18.818l8.185-4.593 10.007.007 10.054 7.138s-.52 28.265-2.094 37.926c-1.384 8.526-3.01 18.257.239 26.492z" class="color3E3279 svgShape"/><path fill="#ffbc47" d="M892.763 716.253c-15.698 8.032-21.065-.618-32.985-.713-.931-.001-1.912.05-2.928.153-3.617.393-6.543-2.847-5.938-6.43 1.885-11.005 1.257-23.166-1.505-39.582a50.776 50.776 0 0 0-3.023-10.648 52.547 52.547 0 0 0-2.906-6.03c-5.143-9.201-11.767-21.643-14.156-27.776-2.82-7.271-3.34-25.943-2.831-38.62l9.407-4.368c3.196 11.232 5.565 22.344 7.501 36.125 4.785 4.981 9.102 12.115 13.903 20.025a6.811 6.811 0 0 0 9.145 2.401l2.481-1.393 10.007.007 10.054 7.138s-.52 28.265-2.094 37.926c-1.384 8.527 2.618 23.549 5.868 31.785z" class="colorFFBC47 svgShape"/><path fill="#f9cbcb" d="M923.478 687.769c-.018.138-.018.293-.052.448-.329 2.738-2.054 5.872-4.433 9.04-4.518 6.008-11.446 12.117-15.893 15.766-2.551 2.082-4.274 3.372-4.274 3.372 4.403 9.959-4.526 19.116-7.175 13.843-.551-1.137 1.467-5.028 1.468-6.578.001-.965-1.694-2.033-2.859-3.74-1.323-1.939-.201-4.358.609-5.494 1.569-2.152 3.104-4.562 4.673-7.042 4.19-6.593 8.674-13.756 14.93-18.591-10.554-5.622-17.666-8.142-24.948-14.797l3.465-27.453c.001 0 35.376 28.635 34.489 41.226z" class="colorF9CBCB svgShape"/><path fill="#fe81df" d="M923.478 687.769c-.018.138-.018.293-.052.448a1485.351 1485.351 0 0 1-4.433 9.04c-4.518 6.008-11.446 12.117-15.893 15.766l-7.558-5.638c4.19-6.593 8.674-13.756 14.93-18.591-10.554-5.622-17.666-8.142-24.948-14.797l3.465-27.453c.001-.001 35.376 28.634 34.489 41.225z" class="colorFE81DF svgShape"/><path fill="#f9cbcb" d="M861.717 603.186s-4.683 12.94-1.094 21.032c3.589 8.093 17.975 2.53 17.975 2.53l-16.881-23.562z" class="colorF9CBCB svgShape"/><path fill="#f9cbcb" d="m871.112 627.23-2.178 12.166 9.998.007-.333-12.655z" class="colorF9CBCB svgShape"/><path fill="#30334d" d="M912.7 649.1c-.961-7.162 3.188-10.571.572-17.308-2.494-6.421-10.09-9.437-13.475-15.435-2.531-4.483-2.36-9.995-4.192-14.806-2.619-6.875-9.631-11.838-16.987-12.02-7.354-.182-14.604 4.427-17.56 11.165 0 0-3.904 6.976 1.821 16.698 3.086 5.239 11.352 9.79 13.182 15.589 3.393 10.755-11.304 25.411-7.148 35.895 2.259 5.698 8.787 5.624 9.989 11.633 1.078 5.389-8.863 9.401-.015 20.993 6.611 8.661 14.526 1.709 19.672 1.198 4.307-.428 11.695 4.045 19.594-.416 14.416-8.141 2.3-19.164 5.354-30.354 3.937-14.424-9.77-15.109-10.807-22.832zM879.148 887.279l1.27 6.505c.448 1.777.576 3.619.377 5.44l-.728 7.027-2.579-.02.229-4.448c-.113-1.15-1.559-1.59-2.294-.699L873.016 904c-.695 1.307-1.962 2.227-3.426 2.436-4.472.642-13.211.912-13.614-2.02-.414-3.014 8.065-3.26 10.496-6.615 2.355-3.247 3.937-10.26 3.937-10.26 2.662 1.071 5.798.725 8.739-.262zM919.322 874.998l4.106 5.006a15.401 15.401 0 0 1 2.657 4.762l2.334 6.668-2.342 1.08-1.687-4.122c-.592-.993-2.088-.776-2.373.345l-.935 3.663c-.073 1.478-.828 2.85-2.064 3.664-3.772 2.485-11.565 6.451-13.177 3.97-1.659-2.551 5.908-6.385 6.68-10.455.747-3.942-.808-10.961-.808-10.961 2.864-.165 5.368-1.474 7.609-3.62z" class="color30334D svgShape"/><path fill="#5a8de0" d="M193.107 737.451v182.26c-21.805.004-41.56-8.814-55.883-23.082-22.703-22.62-23.284-50.666-23.295-55.941 4.005-7.526 9.164-19.593 10.715-35.164 2.598-26.026-6.45-46.088-10.881-54.512 11.931-2.655 26.603-9.261 41.582-19.092l37.671 5.545.091-.014z" class="color5A8DE0 svgShape"/><path fill="#5280cc" d="M272.274 840.396c.007 5.271-.466 33.32-23.085 56.024-14.301 14.351-34.078 23.252-55.941 23.291h-.141v-182.26l37.343-5.671c15.015 9.773 29.713 16.325 41.654 18.937-4.398 8.438-13.37 28.537-10.679 54.555 1.614 15.563 6.816 27.609 10.849 35.124z" class="color5280CC svgShape"/><path fill="#4b7fd1" d="M193.107 744.944v165.542c-18.637 0-36.163-7.237-49.371-20.394-17.371-17.306-20.163-38.505-20.531-47.254 5.787-11.501 9.358-23.731 10.621-36.398 1.984-19.882-2.096-36.878-7.208-49.584 9.932-3.51 20.733-8.893 31.459-15.715l35.03 3.803z" class="color4B7FD1 svgShape"/><path fill="#396cbd" d="M263.006 842.578c-.336 8.752-3.052 29.962-20.354 47.326-13.186 13.237-30.738 20.546-49.418 20.582h-.126V744.944l34.648-3.932c10.751 6.779 21.574 12.122 31.517 15.596-5.065 12.728-9.08 29.738-7.024 49.613 1.309 12.658 4.927 24.878 10.757 36.357z" class="color396CBD svgShape"/><path fill="#ffffff" d="M193.099 750.058V905.68c-17.391 0-33.751-6.755-46.076-19.031-15.661-15.602-18.609-34.696-19.109-43.143 5.667-11.529 9.176-23.783 10.438-36.441 1.595-15.982-.411-31.823-5.959-47.144 8.746-3.426 18.048-8.186 27.187-13.924l33.426 4.072.093-.011z" class="colorFFF svgShape"/><path fill="#f3f0ff" d="M258.289 843.237c-.471 8.451-3.351 27.557-18.949 43.214-12.306 12.351-28.681 19.169-46.117 19.203h-.116V750.031l33.149-4.184c9.161 5.701 18.482 10.427 27.243 13.819-5.492 15.344-7.438 31.192-5.787 47.171 1.312 12.65 4.869 24.889 10.577 36.4z" class="colorF3F0FF svgShape"/><path fill="#5a8de0" d="m171.11 821.104 59.637-.199c-2.115-3.12-5.918-5.205-10.258-5.19l-3.632.012-.082-10.813-.027-8.166c-.026-7.965-6.512-14.408-14.484-14.381l-21.254.071c-7.972.026-14.408 6.512-14.381 14.477l.063 18.979-3.678.012c-4.339.015-8.135 2.125-10.229 5.259l13.924-.047 4.401-.014zm10.782-31.773 19.543-.065a8.39 8.39 0 0 1 8.42 8.363l.024 7.286v10.834l-36.296.121-.06-18.113c-.017-4.635 3.734-8.41 8.369-8.426zM232.513 826.544a9.965 9.965 0 0 0-.645-3.477l-80.186.268a9.8 9.8 0 0 0-.616 3.485l.037 10.042c.065 20.387 18.351 36.869 40.84 36.79 11.251-.036 21.408-4.209 28.754-10.911 7.354-6.709 11.882-15.961 11.845-26.154l-.029-10.043zm-40.622 31.805c-7.52.029-13.635-6.049-13.664-13.577-.022-7.52 6.049-13.635 13.57-13.664 7.527-.022 13.649 6.057 13.671 13.577.022 7.521-6.049 13.643-13.577 13.664z" class="color5A8DE0 svgShape"/><path fill="#5a8de0" d="M191.645 838.447a3.252 3.252 0 0 0-3.035 3.144 3.214 3.214 0 0 0 1.572 2.847l-.565 7.39a.521.521 0 0 0 .521.565l3.47-.015a.516.516 0 0 0 .514-.565l-.616-7.39a3.203 3.203 0 0 0 1.558-2.76 3.24 3.24 0 0 0-3.419-3.216z" class="color5A8DE0 svgShape"/><path fill="#2459b3" d="m937.239 116.951 23.3-15.582-15.281-6.205z" class="color2459B3 svgShape"/><path fill="#5686d6" d="m961.51 106.257 22.527-30.594-37.212 25.706zM984.038 75.607l-60.462 13.227 14.231 5.502z" class="color5686D6 svgShape"/><path fill="#3b70c7" d="m984.037 75.663-37.215 25.861-9.583 15.427.443-22.778z" class="color3B70C7 svgShape"/><path fill="#d94559" d="M90.886 313.177c.41.662.541 1.461.349 2.247a2.926 2.926 0 0 1-2.043 2.135l-9.901 2.888a2.925 2.925 0 0 1-2.871-.702 2.927 2.927 0 0 1-.827-2.837l2.45-10.018a2.926 2.926 0 0 1 2.043-2.135 2.923 2.923 0 0 1 2.87.702l7.451 7.13a3 3 0 0 1 .479.59zm-12.958 4.757a.713.713 0 0 0 .103.128c.078.075.295.24.607.148l9.901-2.888a.612.612 0 0 0 .432-.452.612.612 0 0 0-.175-.6l-7.452-7.131a.61.61 0 0 0-.607-.148.613.613 0 0 0-.432.451l-2.45 10.018a.606.606 0 0 0 .073.474zM1305.044 508.956c.41.662.541 1.461.349 2.247a2.924 2.924 0 0 1-2.043 2.135l-9.901 2.888a2.925 2.925 0 0 1-2.871-.702 2.927 2.927 0 0 1-.827-2.837l2.45-10.018a2.926 2.926 0 0 1 2.043-2.135 2.923 2.923 0 0 1 2.87.702l7.451 7.13a3 3 0 0 1 .479.59zm-12.958 4.757a.713.713 0 0 0 .103.128c.078.075.295.24.607.148l9.901-2.887a.614.614 0 0 0 .432-.452.612.612 0 0 0-.175-.6l-7.451-7.131a.616.616 0 0 0-.607-.149.615.615 0 0 0-.433.451l-2.449 10.018a.602.602 0 0 0 .072.474zM714.64 161.98c.41.662.541 1.461.349 2.247a2.924 2.924 0 0 1-2.043 2.135l-9.901 2.888a2.925 2.925 0 0 1-2.871-.702 2.927 2.927 0 0 1-.827-2.837l2.45-10.018a2.926 2.926 0 0 1 2.043-2.135 2.926 2.926 0 0 1 2.87.702l7.451 7.13a3 3 0 0 1 .479.59zm-12.958 4.758a.713.713 0 0 0 .103.128c.078.075.295.24.607.148l9.901-2.888a.614.614 0 0 0 .432-.452.612.612 0 0 0-.175-.6l-7.452-7.131a.613.613 0 0 0-.607-.149.613.613 0 0 0-.432.451l-2.45 10.018a.613.613 0 0 0 .073.475z" class="colorD94559 svgShape"/><path fill="#ffb86b" d="m93.663 532.208 3.642-3.642a2.117 2.117 0 1 0-2.994-2.994l-3.642 3.642-3.642-3.642a2.117 2.117 0 1 0-2.994 2.994l3.642 3.642-3.635 3.635a2.117 2.117 0 1 0 2.994 2.994l3.635-3.635 3.635 3.635c.413.413.955.62 1.497.62a2.117 2.117 0 0 0 1.497-3.614l-3.635-3.635zM1235.239 327.109l3.642-3.642a2.117 2.117 0 1 0-2.994-2.994l-3.642 3.642-3.642-3.642a2.117 2.117 0 1 0-2.994 2.994l3.642 3.642-3.635 3.635a2.117 2.117 0 1 0 2.994 2.994l3.636-3.636 3.635 3.636c.413.413.955.62 1.497.62a2.117 2.117 0 0 0 1.497-3.614l-3.636-3.635z" class="colorFFB86B svgShape"/><path fill="#2363a8" d="M287.448 119.662c-4.587 0-8.318-3.732-8.318-8.318 0-4.587 3.732-8.318 8.318-8.318 4.587 0 8.318 3.732 8.318 8.318 0 4.586-3.731 8.318-8.318 8.318zm0-14.034a5.722 5.722 0 0 0-5.715 5.715 5.722 5.722 0 0 0 5.715 5.715 5.722 5.722 0 0 0 5.715-5.715 5.722 5.722 0 0 0-5.715-5.715zM1240.564 755.237c-4.587 0-8.318-3.732-8.318-8.318 0-4.587 3.732-8.318 8.318-8.318s8.318 3.732 8.318 8.318c0 4.586-3.731 8.318-8.318 8.318zm0-14.034a5.722 5.722 0 0 0-5.715 5.715 5.722 5.722 0 0 0 5.715 5.715 5.722 5.722 0 0 0 5.715-5.715 5.722 5.722 0 0 0-5.715-5.715z" class="color2363A8 svgShape"/></svg>